<svg xmlns="http://www.w3.org/2000/svg" xmlns:xlink="http://www.w3.org/1999/xlink" width="1366" zoomAndPan="magnify" viewBox="0 0 1024.5 576" height="768" preserveAspectRatio="xMidYMid meet" version="1.0"><defs><filter x="0%" y="0%" width="100%" height="100%" id="861fa23675"><feColorMatrix values="0 0 0 0 1 0 0 0 0 1 0 0 0 0 1 0 0 0 1 0" color-interpolation-filters="sRGB"/></filter><mask id="0b452772c9"><g filter="url(#861fa23675)"><rect x="-102.45" width="1229.4" fill="#000000" y="-57.6" height="691.2" fill-opacity="0.2"/></g></mask><clipPath id="495340c7c1"><path d="M 14 14 L 87 14 L 87 87 L 14 87 Z M 14 14 " clip-rule="nonzero"/></clipPath><clipPath id="3749602330"><path d="M 50.46875 86.460938 L 14.421875 50.414062 L 50.46875 14.371094 L 86.511719 50.414062 Z M 50.46875 86.460938 " clip-rule="nonzero"/></clipPath><clipPath id="367addef4f"><path d="M 50.46875 86.460938 L 14.398438 50.390625 L 50.46875 14.320312 L 86.535156 50.390625 Z M 50.46875 86.460938 " clip-rule="nonzero"/></clipPath><clipPath id="f3f7371090"><rect x="0" width="100" y="0" height="100"/></clipPath><mask id="c71a11f17d"><g filter="url(#861fa23675)"><rect x="-102.45" width="1229.4" fill="#000000" y="-57.6" height="691.2" fill-opacity="0.2"/></g></mask><clipPath id="c6a103c023"><path d="M 13 14 L 49 14 L 49 50 L 13 50 Z M 13 14 " clip-rule="nonzero"/></clipPath><clipPath id="93a451a67c"><path d="M 13.441406 31.539062 L 30.933594 14.046875 L 48.425781 31.539062 L 30.933594 49.03125 Z M 13.441406 31.539062 " clip-rule="nonzero"/></clipPath><clipPath id="45bfdffde4"><path d="M 13.441406 31.539062 L 30.96875 14.011719 L 48.492188 31.539062 L 30.96875 49.0625 Z M 13.441406 31.539062 " clip-rule="nonzero"/></clipPath><clipPath id="a8a6e30c58"><rect x="0" width="62" y="0" height="63"/></clipPath><mask id="0bdf95e060"><g filter="url(#861fa23675)"><rect x="-102.45" width="1229.4" fill="#000000" y="-57.6" height="691.2" fill-opacity="0.2"/></g></mask><clipPath id="3ad0c20a39"><path d="M 13 13 L 49 13 L 49 49 L 13 49 Z M 13 13 " clip-rule="nonzero"/></clipPath><clipPath id="9ea1c5186b"><path d="M 13.945312 31.035156 L 31.4375 13.542969 L 48.929688 31.035156 L 31.4375 48.527344 Z M 13.945312 31.035156 " clip-rule="nonzero"/></clipPath><clipPath id="d74a50ac52"><path d="M 13.945312 31.035156 L 31.46875 13.511719 L 48.996094 31.035156 L 31.46875 48.5625 Z M 13.945312 31.035156 " clip-rule="nonzero"/></clipPath><clipPath id="61e1cf6746"><rect x="0" width="63" y="0" height="62"/></clipPath><mask id="478790a69a"><g filter="url(#861fa23675)"><rect x="-102.45" width="1229.4" fill="#000000" y="-57.6" height="691.2" fill-opacity="0.2"/></g></mask><clipPath id="e312d58d72"><path d="M 13 13 L 49 13 L 49 49 L 13 49 Z M 13 13 " clip-rule="nonzero"/></clipPath><clipPath id="e810c44abd"><path d="M 13.945312 31.039062 L 31.4375 13.546875 L 48.929688 31.039062 L 31.4375 48.53125 Z M 13.945312 31.039062 " clip-rule="nonzero"/></clipPath><clipPath id="0ff4c90529"><path d="M 13.945312 31.039062 L 31.46875 13.515625 L 48.996094 31.039062 L 31.46875 48.566406 Z M 13.945312 31.039062 " clip-rule="nonzero"/></clipPath><clipPath id="d3db801fe9"><rect x="0" width="63" y="0" height="62"/></clipPath><mask id="a97284b35d"><g filter="url(#861fa23675)"><rect x="-102.45" width="1229.4" fill="#000000" y="-57.6" height="691.2" fill-opacity="0.2"/></g></mask><clipPath id="856ae90747"><path d="M 13 14 L 86 14 L 86 87 L 13 87 Z M 13 14 " clip-rule="nonzero"/></clipPath><clipPath id="5570665ad2"><path d="M 49.386719 86.378906 L 13.34375 50.335938 L 49.386719 14.289062 L 85.433594 50.335938 Z M 49.386719 86.378906 " clip-rule="nonzero"/></clipPath><clipPath id="811688ba27"><path d="M 49.386719 86.378906 L 13.316406 50.308594 L 49.386719 14.242188 L 85.457031 50.308594 Z M 49.386719 86.378906 " clip-rule="nonzero"/></clipPath><clipPath id="61a2f4f549"><rect x="0" width="99" y="0" height="100"/></clipPath><mask id="307c903c63"><g filter="url(#861fa23675)"><rect x="-102.45" width="1229.4" fill="#000000" y="-57.6" height="691.2" fill-opacity="0.2"/></g></mask><clipPath id="e667bbb2e8"><path d="M 13 14 L 86 14 L 86 87 L 13 87 Z M 13 14 " clip-rule="nonzero"/></clipPath><clipPath id="ea53f5a3a5"><path d="M 49.546875 86.378906 L 13.503906 50.335938 L 49.546875 14.289062 L 85.589844 50.335938 Z M 49.546875 86.378906 " clip-rule="nonzero"/></clipPath><clipPath id="dc24f9732b"><path d="M 49.546875 86.378906 L 13.476562 50.308594 L 49.546875 14.242188 L 85.617188 50.308594 Z M 49.546875 86.378906 " clip-rule="nonzero"/></clipPath><clipPath id="2b953091ec"><rect x="0" width="99" y="0" height="100"/></clipPath><mask id="05ba6e266a"><g filter="url(#861fa23675)"><rect x="-102.45" width="1229.4" fill="#000000" y="-57.6" height="691.2" fill-opacity="0.2"/></g></mask><clipPath id="c31d97b0c6"><path d="M 13 13 L 86 13 L 86 86 L 13 86 Z M 13 13 " clip-rule="nonzero"/></clipPath><clipPath id="c0ed3c0c97"><path d="M 49.386719 13.589844 L 85.433594 49.632812 L 49.386719 85.679688 L 13.34375 49.632812 Z M 49.386719 13.589844 " clip-rule="nonzero"/></clipPath><clipPath id="6b9cadb4ad"><path d="M 49.386719 13.589844 L 85.457031 49.660156 L 49.386719 85.730469 L 13.316406 49.660156 Z M 49.386719 13.589844 " clip-rule="nonzero"/></clipPath><clipPath id="e8e3195af9"><rect x="0" width="99" y="0" height="99"/></clipPath><mask id="768e7af101"><g filter="url(#861fa23675)"><rect x="-102.45" width="1229.4" fill="#000000" y="-57.6" height="691.2" fill-opacity="0.2"/></g></mask><clipPath id="559cccea8f"><path d="M 13 14 L 49 14 L 49 50 L 13 50 Z M 13 14 " clip-rule="nonzero"/></clipPath><clipPath id="8f6d039d48"><path d="M 48.417969 31.515625 L 30.925781 49.007812 L 13.433594 31.515625 L 30.925781 14.023438 Z M 48.417969 31.515625 " clip-rule="nonzero"/></clipPath><clipPath id="486ffe2a0a"><path d="M 48.417969 31.515625 L 30.890625 49.039062 L 13.367188 31.515625 L 30.890625 13.988281 Z M 48.417969 31.515625 " clip-rule="nonzero"/></clipPath><clipPath id="47fbc3c585"><rect x="0" width="62" y="0" height="63"/></clipPath><mask id="70a63f005b"><g filter="url(#861fa23675)"><rect x="-102.45" width="1229.4" fill="#000000" y="-57.6" height="691.2" fill-opacity="0.2"/></g></mask><clipPath id="d5dd62d8a4"><path d="M 13 13 L 49 13 L 49 49 L 13 49 Z M 13 13 " clip-rule="nonzero"/></clipPath><clipPath id="2b82c2ccf9"><path d="M 48.914062 31.015625 L 31.421875 48.511719 L 13.929688 31.015625 L 31.421875 13.523438 Z M 48.914062 31.015625 " clip-rule="nonzero"/></clipPath><clipPath id="ff6fc6ec6b"><path d="M 48.914062 31.015625 L 31.390625 48.542969 L 13.863281 31.015625 L 31.390625 13.492188 Z M 48.914062 31.015625 " clip-rule="nonzero"/></clipPath><clipPath id="a7ab2f2d00"><rect x="0" width="62" y="0" height="62"/></clipPath><mask id="9918b1de07"><g filter="url(#861fa23675)"><rect x="-102.45" width="1229.4" fill="#000000" y="-57.6" height="691.2" fill-opacity="0.2"/></g></mask><clipPath id="e83db65a77"><path d="M 13 13 L 49 13 L 49 49 L 13 49 Z M 13 13 " clip-rule="nonzero"/></clipPath><clipPath id="af48e67418"><path d="M 48.914062 31.011719 L 31.421875 48.503906 L 13.929688 31.011719 L 31.421875 13.519531 Z M 48.914062 31.011719 " clip-rule="nonzero"/></clipPath><clipPath id="f74fe64aea"><path d="M 48.914062 31.011719 L 31.390625 48.539062 L 13.863281 31.011719 L 31.390625 13.488281 Z M 48.914062 31.011719 " clip-rule="nonzero"/></clipPath><clipPath id="598ecd3de1"><rect x="0" width="62" y="0" height="62"/></clipPath><mask id="997999f61f"><g filter="url(#861fa23675)"><rect x="-102.45" width="1229.4" fill="#000000" y="-57.6" height="691.2" fill-opacity="0.2"/></g></mask><clipPath id="b12398cae3"><path d="M 14 13 L 87 13 L 87 86 L 14 86 Z M 14 13 " clip-rule="nonzero"/></clipPath><clipPath id="7a232d84ad"><path d="M 50.46875 13.667969 L 86.511719 49.714844 L 50.46875 85.757812 L 14.421875 49.714844 Z M 50.46875 13.667969 " clip-rule="nonzero"/></clipPath><clipPath id="32ca5309ac"><path d="M 50.46875 13.667969 L 86.535156 49.738281 L 50.46875 85.808594 L 14.398438 49.738281 Z M 50.46875 13.667969 " clip-rule="nonzero"/></clipPath><clipPath id="841a17f1e4"><rect x="0" width="100" y="0" height="100"/></clipPath><mask id="fa070b1792"><g filter="url(#861fa23675)"><rect x="-102.45" width="1229.4" fill="#000000" y="-57.6" height="691.2" fill-opacity="0.2"/></g></mask><clipPath id="e8e506e002"><path d="M 14 13 L 87 13 L 87 86 L 14 86 Z M 14 13 " clip-rule="nonzero"/></clipPath><clipPath id="600636a426"><path d="M 50.308594 13.667969 L 86.351562 49.714844 L 50.308594 85.757812 L 14.261719 49.714844 Z M 50.308594 13.667969 " clip-rule="nonzero"/></clipPath><clipPath id="d19bb90b92"><path d="M 50.308594 13.667969 L 86.378906 49.738281 L 50.308594 85.808594 L 14.238281 49.738281 Z M 50.308594 13.667969 " clip-rule="nonzero"/></clipPath><clipPath id="a7463ba5d1"><rect x="0" width="100" y="0" height="100"/></clipPath><mask id="cbedfb8e26"><g filter="url(#861fa23675)"><rect x="-102.45" width="1229.4" fill="#000000" y="-57.6" height="691.2" fill-opacity="0.2"/></g></mask><clipPath id="223835a9c2"><path d="M 14 14 L 87 14 L 87 87 L 14 87 Z M 14 14 " clip-rule="nonzero"/></clipPath><clipPath id="ebcf750878"><path d="M 50.269531 86.199219 L 14.222656 50.15625 L 50.269531 14.109375 L 86.3125 50.15625 Z M 50.269531 86.199219 " clip-rule="nonzero"/></clipPath><clipPath id="7ce7ced3ab"><path d="M 50.269531 86.199219 L 14.199219 50.128906 L 50.269531 14.058594 L 86.339844 50.128906 Z M 50.269531 86.199219 " clip-rule="nonzero"/></clipPath><clipPath id="09650c225a"><rect x="0" width="100" y="0" height="100"/></clipPath><mask id="35e93a8bbe"><g filter="url(#861fa23675)"><rect x="-102.45" width="1229.4" fill="#000000" y="-57.6" height="691.2" fill-opacity="0.2"/></g></mask><clipPath id="30cb3c7d8a"><path d="M 13 13 L 49 13 L 49 49 L 13 49 Z M 13 13 " clip-rule="nonzero"/></clipPath><clipPath id="4c188e7f97"><path d="M 13.242188 31.277344 L 30.734375 13.785156 L 48.226562 31.277344 L 30.734375 48.769531 Z M 13.242188 31.277344 " clip-rule="nonzero"/></clipPath><clipPath id="dd455d3895"><path d="M 13.242188 31.277344 L 30.769531 13.753906 L 48.292969 31.277344 L 30.769531 48.804688 Z M 13.242188 31.277344 " clip-rule="nonzero"/></clipPath><clipPath id="cf05684687"><rect x="0" width="62" y="0" height="62"/></clipPath><mask id="90dadc565a"><g filter="url(#861fa23675)"><rect x="-102.45" width="1229.4" fill="#000000" y="-57.6" height="691.2" fill-opacity="0.2"/></g></mask><clipPath id="5000054bbe"><path d="M 13 13 L 49 13 L 49 49 L 13 49 Z M 13 13 " clip-rule="nonzero"/></clipPath><clipPath id="64ffcfef2b"><path d="M 13.746094 30.777344 L 31.238281 13.28125 L 48.730469 30.777344 L 31.238281 48.269531 Z M 13.746094 30.777344 " clip-rule="nonzero"/></clipPath><clipPath id="81fc95ef5b"><path d="M 13.746094 30.777344 L 31.269531 13.25 L 48.796875 30.777344 L 31.269531 48.300781 Z M 13.746094 30.777344 " clip-rule="nonzero"/></clipPath><clipPath id="2bf072a2b4"><rect x="0" width="62" y="0" height="62"/></clipPath><mask id="8daa6d9387"><g filter="url(#861fa23675)"><rect x="-102.45" width="1229.4" fill="#000000" y="-57.6" height="691.2" fill-opacity="0.2"/></g></mask><clipPath id="0a8aeb4878"><path d="M 13 13 L 49 13 L 49 49 L 13 49 Z M 13 13 " clip-rule="nonzero"/></clipPath><clipPath id="5420ea1bca"><path d="M 13.746094 30.78125 L 31.238281 13.289062 L 48.730469 30.78125 L 31.238281 48.273438 Z M 13.746094 30.78125 " clip-rule="nonzero"/></clipPath><clipPath id="3dafc61a10"><path d="M 13.746094 30.78125 L 31.269531 13.253906 L 48.796875 30.78125 L 31.269531 48.304688 Z M 13.746094 30.78125 " clip-rule="nonzero"/></clipPath><clipPath id="b4123719d7"><rect x="0" width="62" y="0" height="62"/></clipPath><mask id="c9dd18c3ea"><g filter="url(#861fa23675)"><rect x="-102.45" width="1229.4" fill="#000000" y="-57.6" height="691.2" fill-opacity="0.2"/></g></mask><clipPath id="b3c5e81be2"><path d="M 14 14 L 87 14 L 87 87 L 14 87 Z M 14 14 " clip-rule="nonzero"/></clipPath><clipPath id="0108e424ef"><path d="M 50.1875 86.121094 L 14.144531 50.074219 L 50.1875 14.03125 L 86.234375 50.074219 Z M 50.1875 86.121094 " clip-rule="nonzero"/></clipPath><clipPath id="16b8abaf00"><path d="M 50.1875 86.121094 L 14.121094 50.050781 L 50.1875 13.980469 L 86.257812 50.050781 Z M 50.1875 86.121094 " clip-rule="nonzero"/></clipPath><clipPath id="baf605ab69"><rect x="0" width="100" y="0" height="100"/></clipPath><mask id="fd27eea8ea"><g filter="url(#861fa23675)"><rect x="-102.45" width="1229.4" fill="#000000" y="-57.6" height="691.2" fill-opacity="0.2"/></g></mask><clipPath id="17a7afe61a"><path d="M 14 14 L 87 14 L 87 87 L 14 87 Z M 14 14 " clip-rule="nonzero"/></clipPath><clipPath id="fcab9342dd"><path d="M 50.347656 86.121094 L 14.304688 50.074219 L 50.347656 14.03125 L 86.394531 50.074219 Z M 50.347656 86.121094 " clip-rule="nonzero"/></clipPath><clipPath id="47825aac59"><path d="M 50.347656 86.121094 L 14.277344 50.050781 L 50.347656 13.980469 L 86.417969 50.050781 Z M 50.347656 86.121094 " clip-rule="nonzero"/></clipPath><clipPath id="d3c7334003"><rect x="0" width="100" y="0" height="100"/></clipPath><mask id="d501d6f3d2"><g filter="url(#861fa23675)"><rect x="-102.45" width="1229.4" fill="#000000" y="-57.6" height="691.2" fill-opacity="0.2"/></g></mask><clipPath id="532f45587f"><path d="M 14 14 L 87 14 L 87 87 L 14 87 Z M 14 14 " clip-rule="nonzero"/></clipPath><clipPath id="b459f023d5"><path d="M 50.1875 14.328125 L 86.234375 50.375 L 50.1875 86.417969 L 14.144531 50.375 Z M 50.1875 14.328125 " clip-rule="nonzero"/></clipPath><clipPath id="0f330a076d"><path d="M 50.1875 14.328125 L 86.257812 50.398438 L 50.1875 86.46875 L 14.121094 50.398438 Z M 50.1875 14.328125 " clip-rule="nonzero"/></clipPath><clipPath id="f7a8c7d289"><rect x="0" width="100" y="0" height="100"/></clipPath><mask id="dd7e202912"><g filter="url(#861fa23675)"><rect x="-102.45" width="1229.4" fill="#000000" y="-57.6" height="691.2" fill-opacity="0.2"/></g></mask><clipPath id="d02f94d0c4"><path d="M 13 13 L 49 13 L 49 49 L 13 49 Z M 13 13 " clip-rule="nonzero"/></clipPath><clipPath id="c06b9e493b"><path d="M 48.21875 31.253906 L 30.726562 48.746094 L 13.234375 31.253906 L 30.726562 13.761719 Z M 48.21875 31.253906 " clip-rule="nonzero"/></clipPath><clipPath id="eafbec5681"><path d="M 48.21875 31.253906 L 30.691406 48.78125 L 13.167969 31.253906 L 30.691406 13.730469 Z M 48.21875 31.253906 " clip-rule="nonzero"/></clipPath><clipPath id="ef83dae09b"><rect x="0" width="62" y="0" height="62"/></clipPath><mask id="ddba8c48fa"><g filter="url(#861fa23675)"><rect x="-102.45" width="1229.4" fill="#000000" y="-57.6" height="691.2" fill-opacity="0.2"/></g></mask><clipPath id="2b79707fa2"><path d="M 13 13 L 49 13 L 49 49 L 13 49 Z M 13 13 " clip-rule="nonzero"/></clipPath><clipPath id="f6b571630f"><path d="M 48.714844 30.757812 L 31.222656 48.25 L 13.730469 30.757812 L 31.222656 13.265625 Z M 48.714844 30.757812 " clip-rule="nonzero"/></clipPath><clipPath id="3ae2515d57"><path d="M 48.714844 30.757812 L 31.191406 48.28125 L 13.664062 30.757812 L 31.191406 13.230469 Z M 48.714844 30.757812 " clip-rule="nonzero"/></clipPath><clipPath id="110d19cdb6"><rect x="0" width="62" y="0" height="62"/></clipPath><mask id="e489ce1189"><g filter="url(#861fa23675)"><rect x="-102.45" width="1229.4" fill="#000000" y="-57.6" height="691.2" fill-opacity="0.2"/></g></mask><clipPath id="b4838234c1"><path d="M 13 13 L 49 13 L 49 49 L 13 49 Z M 13 13 " clip-rule="nonzero"/></clipPath><clipPath id="73e199f9fc"><path d="M 48.714844 30.753906 L 31.222656 48.246094 L 13.730469 30.753906 L 31.222656 13.261719 Z M 48.714844 30.753906 " clip-rule="nonzero"/></clipPath><clipPath id="afa8b5b9a7"><path d="M 48.714844 30.753906 L 31.191406 48.277344 L 13.664062 30.753906 L 31.191406 13.226562 Z M 48.714844 30.753906 " clip-rule="nonzero"/></clipPath><clipPath id="6d7d6c9bb0"><rect x="0" width="62" y="0" height="62"/></clipPath><mask id="d426e6ae94"><g filter="url(#861fa23675)"><rect x="-102.45" width="1229.4" fill="#000000" y="-57.6" height="691.2" fill-opacity="0.2"/></g></mask><clipPath id="bacd0402f1"><path d="M 14 14 L 87 14 L 87 87 L 14 87 Z M 14 14 " clip-rule="nonzero"/></clipPath><clipPath id="5e1605705e"><path d="M 50.269531 14.410156 L 86.3125 50.453125 L 50.269531 86.5 L 14.222656 50.453125 Z M 50.269531 14.410156 " clip-rule="nonzero"/></clipPath><clipPath id="350f4e04d7"><path d="M 50.269531 14.410156 L 86.339844 50.480469 L 50.269531 86.546875 L 14.199219 50.480469 Z M 50.269531 14.410156 " clip-rule="nonzero"/></clipPath><clipPath id="afb083a47d"><rect x="0" width="100" y="0" height="100"/></clipPath><mask id="6f10f4a9e7"><g filter="url(#861fa23675)"><rect x="-102.45" width="1229.4" fill="#000000" y="-57.6" height="691.2" fill-opacity="0.2"/></g></mask><clipPath id="e70e39b857"><path d="M 14 14 L 87 14 L 87 87 L 14 87 Z M 14 14 " clip-rule="nonzero"/></clipPath><clipPath id="b1b71e5aa9"><path d="M 50.109375 14.410156 L 86.152344 50.453125 L 50.109375 86.5 L 14.0625 50.453125 Z M 50.109375 14.410156 " clip-rule="nonzero"/></clipPath><clipPath id="1346fb7a02"><path d="M 50.109375 14.410156 L 86.179688 50.480469 L 50.109375 86.546875 L 14.039062 50.480469 Z M 50.109375 14.410156 " clip-rule="nonzero"/></clipPath><clipPath id="ade348984b"><rect x="0" width="100" y="0" height="100"/></clipPath></defs><g mask="url(#0b452772c9)"><g transform="matrix(1, 0, 0, 1, 155, 133)"><g clip-path="url(#f3f7371090)"><g clip-path="url(#495340c7c1)"><g clip-path="url(#3749602330)"><g clip-path="url(#367addef4f)"><path stroke-linecap="butt" transform="matrix(-0.530071, -0.530071, 0.530071, -0.530071, 50.46714, 86.459483)" fill="none" stroke-linejoin="miter" d="M -0.00289025 0.00014661 L 68.04514 0.00014661 L 68.04514 68.048177 L 0.000794392 68.044492 Z M -0.00289025 0.00014661 " stroke="#00b9ae" stroke-width="6" stroke-opacity="1" stroke-miterlimit="4"/></g></g></g></g></g></g><g mask="url(#c71a11f17d)"><g transform="matrix(1, 0, 0, 1, 156, 76)"><g clip-path="url(#a8a6e30c58)"><g clip-path="url(#c6a103c023)"><g clip-path="url(#93a451a67c)"><g clip-path="url(#45bfdffde4)"><path stroke-linecap="butt" transform="matrix(0.530071, -0.530071, 0.530071, 0.530071, 13.441761, 31.537835)" fill="none" stroke-linejoin="miter" d="M -0.0014927 0.00082338 L 33.064515 0.00082338 L 33.06083 33.063146 L 0.00219194 33.063146 Z M -0.0014927 0.00082338 " stroke="#00b9ae" stroke-width="6" stroke-opacity="1" stroke-miterlimit="4"/></g></g></g></g></g></g><g mask="url(#0bdf95e060)"><g transform="matrix(1, 0, 0, 1, 174, 58)"><g clip-path="url(#61e1cf6746)"><g clip-path="url(#3ad0c20a39)"><g clip-path="url(#9ea1c5186b)"><g clip-path="url(#d74a50ac52)"><path stroke-linecap="butt" transform="matrix(0.530071, -0.530071, 0.530071, 0.530071, 13.943844, 31.035759)" fill="none" stroke-linejoin="miter" d="M 0.00195459 0.000816592 L 33.060593 0.000816592 L 33.064277 33.063139 L -0.00173006 33.063139 Z M 0.00195459 0.000816592 " stroke="#00b9ae" stroke-width="6" stroke-opacity="1" stroke-miterlimit="4"/></g></g></g></g></g></g><g mask="url(#478790a69a)"><g transform="matrix(1, 0, 0, 1, 174, 95)"><g clip-path="url(#d3db801fe9)"><g clip-path="url(#e312d58d72)"><g clip-path="url(#e810c44abd)"><g clip-path="url(#0ff4c90529)"><path stroke-linecap="butt" transform="matrix(0.530071, -0.530071, 0.530071, 0.530071, 13.943844, 31.039918)" fill="none" stroke-linejoin="miter" d="M 0.00219217 0.000579011 L 33.06083 0.000579011 L 33.064515 33.062902 L -0.00149248 33.062902 Z M 0.00219217 0.000579011 " stroke="#00b9ae" stroke-width="6" stroke-opacity="1" stroke-miterlimit="4"/></g></g></g></g></g></g><g mask="url(#a97284b35d)"><g transform="matrix(1, 0, 0, 1, 118, 95)"><g clip-path="url(#61a2f4f549)"><g clip-path="url(#856ae90747)"><g clip-path="url(#5570665ad2)"><g clip-path="url(#811688ba27)"><path stroke-linecap="butt" transform="matrix(-0.530071, -0.530071, 0.530071, -0.530071, 49.387368, 86.379694)" fill="none" stroke-linejoin="miter" d="M 0.0013556 0.000130771 L 68.049386 0.000130771 L 68.045701 68.044476 L 0.0013556 68.048161 Z M 0.0013556 0.000130771 " stroke="#00b9ae" stroke-width="6" stroke-opacity="1" stroke-miterlimit="4"/></g></g></g></g></g></g><g mask="url(#307c903c63)"><g transform="matrix(1, 0, 0, 1, 194, 95)"><g clip-path="url(#2b953091ec)"><g clip-path="url(#e667bbb2e8)"><g clip-path="url(#ea53f5a3a5)"><g clip-path="url(#dc24f9732b)"><path stroke-linecap="butt" transform="matrix(-0.530071, -0.530071, 0.530071, -0.530071, 49.546944, 86.379694)" fill="none" stroke-linejoin="miter" d="M 0.000807969 0.000678403 L 68.048838 0.000678403 L 68.045154 68.045024 L 0.000807969 68.048709 Z M 0.000807969 0.000678403 " stroke="#00b9ae" stroke-width="6" stroke-opacity="1" stroke-miterlimit="4"/></g></g></g></g></g></g><g mask="url(#05ba6e266a)"><g transform="matrix(1, 0, 0, 1, 118, 172)"><g clip-path="url(#e8e3195af9)"><g clip-path="url(#c31d97b0c6)"><g clip-path="url(#c0ed3c0c97)"><g clip-path="url(#6b9cadb4ad)"><path stroke-linecap="butt" transform="matrix(0.530071, 0.530071, -0.530071, 0.530071, 49.387368, 13.589432)" fill="none" stroke-linejoin="miter" d="M -0.000223633 0.0010012 L 68.047807 0.0010012 L 68.047807 68.049031 L -0.000223633 68.049031 Z M -0.000223633 0.0010012 " stroke="#00b9ae" stroke-width="6" stroke-opacity="1" stroke-miterlimit="4"/></g></g></g></g></g></g><g mask="url(#768e7af101)"><g transform="matrix(1, 0, 0, 1, 155, 266)"><g clip-path="url(#47fbc3c585)"><g clip-path="url(#559cccea8f)"><g clip-path="url(#8f6d039d48)"><g clip-path="url(#486ffe2a0a)"><path stroke-linecap="butt" transform="matrix(-0.530071, 0.530071, -0.530071, -0.530071, 48.417113, 31.515442)" fill="none" stroke-linejoin="miter" d="M -0.000634496 -0.000980225 L 33.061688 0.00270442 L 33.061688 33.061342 L -0.000634496 33.065027 Z M -0.000634496 -0.000980225 " stroke="#00b9ae" stroke-width="6" stroke-opacity="1" stroke-miterlimit="4"/></g></g></g></g></g></g><g mask="url(#70a63f005b)"><g transform="matrix(1, 0, 0, 1, 136, 285)"><g clip-path="url(#a7ab2f2d00)"><g clip-path="url(#d5dd62d8a4)"><g clip-path="url(#2b82c2ccf9)"><g clip-path="url(#ff6fc6ec6b)"><path stroke-linecap="butt" transform="matrix(-0.530071, 0.530071, -0.530071, -0.530071, 48.915044, 31.017525)" fill="none" stroke-linejoin="miter" d="M -0.000865741 0.00271777 L 33.061457 -0.000966875 L 33.061457 33.06504 L -0.000865741 33.061356 Z M -0.000865741 0.00271777 " stroke="#00b9ae" stroke-width="6" stroke-opacity="1" stroke-miterlimit="4"/></g></g></g></g></g></g><g mask="url(#9918b1de07)"><g transform="matrix(1, 0, 0, 1, 136, 248)"><g clip-path="url(#598ecd3de1)"><g clip-path="url(#e83db65a77)"><g clip-path="url(#af48e67418)"><g clip-path="url(#f74fe64aea)"><path stroke-linecap="butt" transform="matrix(-0.530071, 0.530071, -0.530071, -0.530071, 48.915044, 31.013359)" fill="none" stroke-linejoin="miter" d="M -0.000621372 0.0024734 L 33.061701 -0.00121124 L 33.061701 33.064796 L -0.000621372 33.061111 Z M -0.000621372 0.0024734 " stroke="#00b9ae" stroke-width="6" stroke-opacity="1" stroke-miterlimit="4"/></g></g></g></g></g></g><g mask="url(#997999f61f)"><g transform="matrix(1, 0, 0, 1, 155, 210)"><g clip-path="url(#841a17f1e4)"><g clip-path="url(#b12398cae3)"><g clip-path="url(#7a232d84ad)"><g clip-path="url(#32ca5309ac)"><path stroke-linecap="butt" transform="matrix(0.530071, 0.530071, -0.530071, 0.530071, 50.46714, 13.669234)" fill="none" stroke-linejoin="miter" d="M 0.000324905 -0.00271196 L 68.04467 0.000972687 L 68.048355 68.045318 L 0.000324905 68.045318 Z M 0.000324905 -0.00271196 " stroke="#00b9ae" stroke-width="6" stroke-opacity="1" stroke-miterlimit="4"/></g></g></g></g></g></g><g mask="url(#fa070b1792)"><g transform="matrix(1, 0, 0, 1, 79, 210)"><g clip-path="url(#a7463ba5d1)"><g clip-path="url(#e8e506e002)"><g clip-path="url(#600636a426)"><g clip-path="url(#d19bb90b92)"><path stroke-linecap="butt" transform="matrix(0.530071, 0.530071, -0.530071, 0.530071, 50.307565, 13.669234)" fill="none" stroke-linejoin="miter" d="M -0.000222728 -0.00216433 L 68.047808 -0.00216433 L 68.047808 68.045866 L -0.000222728 68.045866 Z M -0.000222728 -0.00216433 " stroke="#00b9ae" stroke-width="6" stroke-opacity="1" stroke-miterlimit="4"/></g></g></g></g></g></g><g mask="url(#cbedfb8e26)"><g transform="matrix(1, 0, 0, 1, 842, 318)"><g clip-path="url(#09650c225a)"><g clip-path="url(#223835a9c2)"><g clip-path="url(#ebcf750878)"><g clip-path="url(#7ce7ced3ab)"><path stroke-linecap="butt" transform="matrix(-0.530071, -0.530071, 0.530071, -0.530071, 50.268754, 86.199298)" fill="none" stroke-linejoin="miter" d="M -0.000658554 0.000807511 L 68.047372 0.000807511 L 68.047372 68.048838 L -0.000658554 68.048838 Z M -0.000658554 0.000807511 " stroke="#00b9ae" stroke-width="6" stroke-opacity="1" stroke-miterlimit="4"/></g></g></g></g></g></g><g mask="url(#35e93a8bbe)"><g transform="matrix(1, 0, 0, 1, 843, 261)"><g clip-path="url(#cf05684687)"><g clip-path="url(#30cb3c7d8a)"><g clip-path="url(#4c188e7f97)"><g clip-path="url(#dd455d3895)"><path stroke-linecap="butt" transform="matrix(0.530071, -0.530071, 0.530071, 0.530071, 13.243389, 31.277637)" fill="none" stroke-linejoin="miter" d="M -0.000857146 -0.00141013 L 33.061466 0.00227452 L 33.061466 33.060913 L -0.000857146 33.064597 Z M -0.000857146 -0.00141013 " stroke="#00b9ae" stroke-width="6" stroke-opacity="1" stroke-miterlimit="4"/></g></g></g></g></g></g><g mask="url(#90dadc565a)"><g transform="matrix(1, 0, 0, 1, 861, 243)"><g clip-path="url(#2bf072a2b4)"><g clip-path="url(#5000054bbe)"><g clip-path="url(#64ffcfef2b)"><g clip-path="url(#81fc95ef5b)"><path stroke-linecap="butt" transform="matrix(0.530071, -0.530071, 0.530071, 0.530071, 13.745531, 30.775554)" fill="none" stroke-linejoin="miter" d="M -0.00115673 0.00221908 L 33.061166 -0.00146557 L 33.061166 33.064542 L -0.00115673 33.060857 Z M -0.00115673 0.00221908 " stroke="#00b9ae" stroke-width="6" stroke-opacity="1" stroke-miterlimit="4"/></g></g></g></g></g></g><g mask="url(#8daa6d9387)"><g transform="matrix(1, 0, 0, 1, 861, 280)"><g clip-path="url(#b4123719d7)"><g clip-path="url(#0a8aeb4878)"><g clip-path="url(#5420ea1bca)"><g clip-path="url(#3dafc61a10)"><path stroke-linecap="butt" transform="matrix(0.530071, -0.530071, 0.530071, 0.530071, 13.745531, 30.77972)" fill="none" stroke-linejoin="miter" d="M -0.000912357 0.00197471 L 33.06141 -0.00170994 L 33.06141 33.064297 L -0.000912357 33.060613 Z M -0.000912357 0.00197471 " stroke="#00b9ae" stroke-width="6" stroke-opacity="1" stroke-miterlimit="4"/></g></g></g></g></g></g><g mask="url(#c9dd18c3ea)"><g transform="matrix(1, 0, 0, 1, 804, 280)"><g clip-path="url(#baf605ab69)"><g clip-path="url(#b3c5e81be2)"><g clip-path="url(#0108e424ef)"><g clip-path="url(#16b8abaf00)"><path stroke-linecap="butt" transform="matrix(-0.530071, -0.530071, 0.530071, -0.530071, 50.188924, 86.119497)" fill="none" stroke-linejoin="miter" d="M -0.000162964 -0.00284998 L 68.044183 0.000834664 L 68.047867 68.04518 L -0.000162964 68.04518 Z M -0.000162964 -0.00284998 " stroke="#00b9ae" stroke-width="6" stroke-opacity="1" stroke-miterlimit="4"/></g></g></g></g></g></g><g mask="url(#fd27eea8ea)"><g transform="matrix(1, 0, 0, 1, 880, 280)"><g clip-path="url(#d3c7334003)"><g clip-path="url(#17a7afe61a)"><g clip-path="url(#fcab9342dd)"><g clip-path="url(#47825aac59)"><path stroke-linecap="butt" transform="matrix(-0.530071, -0.530071, 0.530071, -0.530071, 50.348529, 86.119497)" fill="none" stroke-linejoin="miter" d="M -0.000683444 -0.0023295 L 68.047347 -0.0023295 L 68.047347 68.045701 L -0.000683444 68.045701 Z M -0.000683444 -0.0023295 " stroke="#00b9ae" stroke-width="6" stroke-opacity="1" stroke-miterlimit="4"/></g></g></g></g></g></g><g mask="url(#d501d6f3d2)"><g transform="matrix(1, 0, 0, 1, 804, 356)"><g clip-path="url(#f7a8c7d289)"><g clip-path="url(#532f45587f)"><g clip-path="url(#b459f023d5)"><g clip-path="url(#0f330a076d)"><path stroke-linecap="butt" transform="matrix(0.530071, 0.530071, -0.530071, 0.530071, 50.188924, 14.329248)" fill="none" stroke-linejoin="miter" d="M -0.00240306 0.000283954 L 68.045627 0.000283954 L 68.045627 68.048314 L 0.00128158 68.04463 Z M -0.00240306 0.000283954 " stroke="#00b9ae" stroke-width="6" stroke-opacity="1" stroke-miterlimit="4"/></g></g></g></g></g></g><g mask="url(#dd7e202912)"><g transform="matrix(1, 0, 0, 1, 842, 451)"><g clip-path="url(#ef83dae09b)"><g clip-path="url(#d02f94d0c4)"><g clip-path="url(#c06b9e493b)"><g clip-path="url(#eafbec5681)"><path stroke-linecap="butt" transform="matrix(-0.530071, 0.530071, -0.530071, -0.530071, 48.218681, 31.255273)" fill="none" stroke-linejoin="miter" d="M -0.00135423 0.00122432 L 33.064653 0.00122432 L 33.060968 33.063547 L 0.00233042 33.063547 Z M -0.00135423 0.00122432 " stroke="#00b9ae" stroke-width="6" stroke-opacity="1" stroke-miterlimit="4"/></g></g></g></g></g></g><g mask="url(#ddba8c48fa)"><g transform="matrix(1, 0, 0, 1, 823, 470)"><g clip-path="url(#110d19cdb6)"><g clip-path="url(#2b79707fa2)"><g clip-path="url(#f6b571630f)"><g clip-path="url(#3ae2515d57)"><path stroke-linecap="butt" transform="matrix(-0.530071, 0.530071, -0.530071, -0.530071, 48.716598, 30.757297)" fill="none" stroke-linejoin="miter" d="M 0.00214081 0.00116888 L 33.060779 0.00116888 L 33.064463 33.063492 L -0.00154384 33.063492 Z M 0.00214081 0.00116888 " stroke="#00b9ae" stroke-width="6" stroke-opacity="1" stroke-miterlimit="4"/></g></g></g></g></g></g><g mask="url(#e489ce1189)"><g transform="matrix(1, 0, 0, 1, 823, 433)"><g clip-path="url(#6d7d6c9bb0)"><g clip-path="url(#b4838234c1)"><g clip-path="url(#73e199f9fc)"><g clip-path="url(#afa8b5b9a7)"><path stroke-linecap="butt" transform="matrix(-0.530071, 0.530071, -0.530071, -0.530071, 48.716598, 30.753191)" fill="none" stroke-linejoin="miter" d="M 0.00232996 0.000979727 L 33.060968 0.000979727 L 33.064653 33.063302 L -0.00135468 33.063302 Z M 0.00232996 0.000979727 " stroke="#00b9ae" stroke-width="6" stroke-opacity="1" stroke-miterlimit="4"/></g></g></g></g></g></g><g mask="url(#d426e6ae94)"><g transform="matrix(1, 0, 0, 1, 842, 394)"><g clip-path="url(#afb083a47d)"><g clip-path="url(#bacd0402f1)"><g clip-path="url(#5e1605705e)"><g clip-path="url(#350f4e04d7)"><path stroke-linecap="butt" transform="matrix(0.530071, 0.530071, -0.530071, 0.530071, 50.268754, 14.409021)" fill="none" stroke-linejoin="miter" d="M 0.00180342 0.000337355 L 68.049834 0.000337355 L 68.046149 68.044683 L 0.00180342 68.048368 Z M 0.00180342 0.000337355 " stroke="#00b9ae" stroke-width="6" stroke-opacity="1" stroke-miterlimit="4"/></g></g></g></g></g></g><g mask="url(#6f10f4a9e7)"><g transform="matrix(1, 0, 0, 1, 766, 394)"><g clip-path="url(#ade348984b)"><g clip-path="url(#e70e39b857)"><g clip-path="url(#b1b71e5aa9)"><g clip-path="url(#1346fb7a02)"><path stroke-linecap="butt" transform="matrix(0.530071, 0.530071, -0.530071, 0.530071, 50.10915, 14.409021)" fill="none" stroke-linejoin="miter" d="M 0.00128294 0.000857835 L 68.049313 0.000857835 L 68.045629 68.045203 L 0.00128294 68.048888 Z M 0.00128294 0.000857835 " stroke="#00b9ae" stroke-width="6" stroke-opacity="1" stroke-miterlimit="4"/></g></g></g></g></g></g></svg>