<svg xmlns="http://www.w3.org/2000/svg" version="1.1" xmlns:xlink="http://www.w3.org/1999/xlink" xmlns:svgjs="http://svgjs.dev/svgjs" viewBox="0 0 1422 800" opacity="0.5"><g stroke-width="2" stroke="hsl(209, 76%, 23%)" fill="none" stroke-linecap="round"><line x1="50" y1="0" x2="0" y2="50" opacity="0.77"></line><line x1="100" y1="0" x2="50" y2="50" opacity="0.89"></line><line x1="150" y1="0" x2="100" y2="50" opacity="0.50"></line><line x1="200" y1="0" x2="150" y2="50" opacity="0.14"></line><line x1="200" y1="0" x2="250" y2="50" opacity="0.61"></line><line x1="250" y1="0" x2="300" y2="50" opacity="0.63"></line><line x1="350" y1="0" x2="300" y2="50" opacity="0.84"></line><line x1="350" y1="0" x2="400" y2="50" opacity="0.83"></line><line x1="450" y1="0" x2="400" y2="50" opacity="0.91"></line><line x1="500" y1="0" x2="450" y2="50" opacity="0.43"></line><line x1="550" y1="0" x2="500" y2="50" opacity="0.26"></line><line x1="600" y1="0" x2="550" y2="50" opacity="0.39"></line><line x1="650" y1="0" x2="600" y2="50" opacity="0.34"></line><line x1="700" y1="0" x2="650" y2="50" opacity="0.27"></line><line x1="750" y1="0" x2="700" y2="50" opacity="0.95"></line><line x1="800" y1="0" x2="750" y2="50" opacity="0.96"></line><line x1="800" y1="0" x2="850" y2="50" opacity="0.28"></line><line x1="850" y1="0" x2="900" y2="50" opacity="0.75"></line><line x1="900" y1="0" x2="950" y2="50" opacity="0.12"></line><line x1="1000" y1="0" x2="950" y2="50" opacity="0.98"></line><line x1="1000" y1="0" x2="1050" y2="50" opacity="0.41"></line><line x1="1100" y1="0" x2="1050" y2="50" opacity="0.19"></line><line x1="1150" y1="0" x2="1100" y2="50" opacity="0.88"></line><line x1="1200" y1="0" x2="1150" y2="50" opacity="0.34"></line><line x1="1250" y1="0" x2="1200" y2="50" opacity="0.78"></line><line x1="1300" y1="0" x2="1250" y2="50" opacity="0.96"></line><line x1="1300" y1="0" x2="1350" y2="50" opacity="0.07"></line><line x1="1350" y1="0" x2="1400" y2="50" opacity="0.80"></line><line x1="1400" y1="0" x2="1450" y2="50" opacity="0.39"></line><line x1="0" y1="50" x2="50" y2="100" opacity="0.21"></line><line x1="50" y1="50" x2="100" y2="100" opacity="0.84"></line><line x1="100" y1="50" x2="150" y2="100" opacity="0.15"></line><line x1="200" y1="50" x2="150" y2="100" opacity="0.85"></line><line x1="250" y1="50" x2="200" y2="100" opacity="0.91"></line><line x1="250" y1="50" x2="300" y2="100" opacity="0.18"></line><line x1="350" y1="50" x2="300" y2="100" opacity="0.79"></line><line x1="350" y1="50" x2="400" y2="100" opacity="0.24"></line><line x1="400" y1="50" x2="450" y2="100" opacity="0.98"></line><line x1="450" y1="50" x2="500" y2="100" opacity="0.62"></line><line x1="500" y1="50" x2="550" y2="100" opacity="0.60"></line><line x1="600" y1="50" x2="550" y2="100" opacity="0.61"></line><line x1="650" y1="50" x2="600" y2="100" opacity="0.13"></line><line x1="650" y1="50" x2="700" y2="100" opacity="0.87"></line><line x1="750" y1="50" x2="700" y2="100" opacity="0.57"></line><line x1="750" y1="50" x2="800" y2="100" opacity="0.21"></line><line x1="850" y1="50" x2="800" y2="100" opacity="0.87"></line><line x1="850" y1="50" x2="900" y2="100" opacity="0.33"></line><line x1="950" y1="50" x2="900" y2="100" opacity="0.47"></line><line x1="950" y1="50" x2="1000" y2="100" opacity="0.30"></line><line x1="1000" y1="50" x2="1050" y2="100" opacity="0.07"></line><line x1="1050" y1="50" x2="1100" y2="100" opacity="0.99"></line><line x1="1100" y1="50" x2="1150" y2="100" opacity="0.34"></line><line x1="1150" y1="50" x2="1200" y2="100" opacity="0.32"></line><line x1="1250" y1="50" x2="1200" y2="100" opacity="0.63"></line><line x1="1250" y1="50" x2="1300" y2="100" opacity="0.84"></line><line x1="1300" y1="50" x2="1350" y2="100" opacity="0.15"></line><line x1="1350" y1="50" x2="1400" y2="100" opacity="0.07"></line><line x1="1450" y1="50" x2="1400" y2="100" opacity="0.49"></line><line x1="0" y1="100" x2="50" y2="150" opacity="0.51"></line><line x1="50" y1="100" x2="100" y2="150" opacity="0.82"></line><line x1="100" y1="100" x2="150" y2="150" opacity="0.68"></line><line x1="200" y1="100" x2="150" y2="150" opacity="0.69"></line><line x1="250" y1="100" x2="200" y2="150" opacity="0.42"></line><line x1="250" y1="100" x2="300" y2="150" opacity="0.08"></line><line x1="300" y1="100" x2="350" y2="150" opacity="0.93"></line><line x1="400" y1="100" x2="350" y2="150" opacity="0.13"></line><line x1="400" y1="100" x2="450" y2="150" opacity="0.25"></line><line x1="450" y1="100" x2="500" y2="150" opacity="0.63"></line><line x1="500" y1="100" x2="550" y2="150" opacity="0.17"></line><line x1="600" y1="100" x2="550" y2="150" opacity="0.69"></line><line x1="600" y1="100" x2="650" y2="150" opacity="0.50"></line><line x1="700" y1="100" x2="650" y2="150" opacity="0.53"></line><line x1="750" y1="100" x2="700" y2="150" opacity="0.17"></line><line x1="750" y1="100" x2="800" y2="150" opacity="0.88"></line><line x1="850" y1="100" x2="800" y2="150" opacity="0.64"></line><line x1="900" y1="100" x2="850" y2="150" opacity="0.30"></line><line x1="950" y1="100" x2="900" y2="150" opacity="0.07"></line><line x1="950" y1="100" x2="1000" y2="150" opacity="0.64"></line><line x1="1050" y1="100" x2="1000" y2="150" opacity="0.11"></line><line x1="1100" y1="100" x2="1050" y2="150" opacity="0.52"></line><line x1="1150" y1="100" x2="1100" y2="150" opacity="0.90"></line><line x1="1200" y1="100" x2="1150" y2="150" opacity="0.67"></line><line x1="1200" y1="100" x2="1250" y2="150" opacity="0.20"></line><line x1="1250" y1="100" x2="1300" y2="150" opacity="0.14"></line><line x1="1300" y1="100" x2="1350" y2="150" opacity="0.71"></line><line x1="1350" y1="100" x2="1400" y2="150" opacity="0.17"></line><line x1="1400" y1="100" x2="1450" y2="150" opacity="0.67"></line><line x1="50" y1="150" x2="0" y2="200" opacity="0.47"></line><line x1="50" y1="150" x2="100" y2="200" opacity="0.51"></line><line x1="150" y1="150" x2="100" y2="200" opacity="0.80"></line><line x1="200" y1="150" x2="150" y2="200" opacity="0.29"></line><line x1="250" y1="150" x2="200" y2="200" opacity="0.99"></line><line x1="300" y1="150" x2="250" y2="200" opacity="0.44"></line><line x1="350" y1="150" x2="300" y2="200" opacity="0.39"></line><line x1="350" y1="150" x2="400" y2="200" opacity="0.48"></line><line x1="400" y1="150" x2="450" y2="200" opacity="0.11"></line><line x1="500" y1="150" x2="450" y2="200" opacity="0.65"></line><line x1="500" y1="150" x2="550" y2="200" opacity="0.75"></line><line x1="600" y1="150" x2="550" y2="200" opacity="0.75"></line><line x1="650" y1="150" x2="600" y2="200" opacity="1.00"></line><line x1="650" y1="150" x2="700" y2="200" opacity="0.25"></line><line x1="750" y1="150" x2="700" y2="200" opacity="0.93"></line><line x1="750" y1="150" x2="800" y2="200" opacity="0.46"></line><line x1="850" y1="150" x2="800" y2="200" opacity="0.61"></line><line x1="900" y1="150" x2="850" y2="200" opacity="0.15"></line><line x1="900" y1="150" x2="950" y2="200" opacity="0.57"></line><line x1="950" y1="150" x2="1000" y2="200" opacity="0.31"></line><line x1="1000" y1="150" x2="1050" y2="200" opacity="0.61"></line><line x1="1050" y1="150" x2="1100" y2="200" opacity="0.65"></line><line x1="1150" y1="150" x2="1100" y2="200" opacity="0.16"></line><line x1="1150" y1="150" x2="1200" y2="200" opacity="0.42"></line><line x1="1250" y1="150" x2="1200" y2="200" opacity="0.69"></line><line x1="1300" y1="150" x2="1250" y2="200" opacity="0.69"></line><line x1="1300" y1="150" x2="1350" y2="200" opacity="0.26"></line><line x1="1350" y1="150" x2="1400" y2="200" opacity="0.75"></line><line x1="1450" y1="150" x2="1400" y2="200" opacity="0.45"></line><line x1="50" y1="200" x2="0" y2="250" opacity="0.97"></line><line x1="100" y1="200" x2="50" y2="250" opacity="0.17"></line><line x1="100" y1="200" x2="150" y2="250" opacity="0.34"></line><line x1="200" y1="200" x2="150" y2="250" opacity="0.42"></line><line x1="250" y1="200" x2="200" y2="250" opacity="0.41"></line><line x1="300" y1="200" x2="250" y2="250" opacity="0.51"></line><line x1="350" y1="200" x2="300" y2="250" opacity="0.77"></line><line x1="350" y1="200" x2="400" y2="250" opacity="0.59"></line><line x1="450" y1="200" x2="400" y2="250" opacity="0.45"></line><line x1="500" y1="200" x2="450" y2="250" opacity="0.85"></line><line x1="550" y1="200" x2="500" y2="250" opacity="0.78"></line><line x1="600" y1="200" x2="550" y2="250" opacity="0.52"></line><line x1="600" y1="200" x2="650" y2="250" opacity="0.80"></line><line x1="650" y1="200" x2="700" y2="250" opacity="0.66"></line><line x1="750" y1="200" x2="700" y2="250" opacity="0.67"></line><line x1="750" y1="200" x2="800" y2="250" opacity="0.84"></line><line x1="850" y1="200" x2="800" y2="250" opacity="0.46"></line><line x1="900" y1="200" x2="850" y2="250" opacity="0.89"></line><line x1="900" y1="200" x2="950" y2="250" opacity="0.45"></line><line x1="1000" y1="200" x2="950" y2="250" opacity="0.65"></line><line x1="1000" y1="200" x2="1050" y2="250" opacity="0.68"></line><line x1="1050" y1="200" x2="1100" y2="250" opacity="0.29"></line><line x1="1150" y1="200" x2="1100" y2="250" opacity="0.57"></line><line x1="1150" y1="200" x2="1200" y2="250" opacity="0.73"></line><line x1="1250" y1="200" x2="1200" y2="250" opacity="0.15"></line><line x1="1250" y1="200" x2="1300" y2="250" opacity="0.09"></line><line x1="1350" y1="200" x2="1300" y2="250" opacity="0.64"></line><line x1="1400" y1="200" x2="1350" y2="250" opacity="0.37"></line><line x1="1400" y1="200" x2="1450" y2="250" opacity="0.90"></line><line x1="0" y1="250" x2="50" y2="300" opacity="0.19"></line><line x1="100" y1="250" x2="50" y2="300" opacity="0.75"></line><line x1="150" y1="250" x2="100" y2="300" opacity="0.93"></line><line x1="200" y1="250" x2="150" y2="300" opacity="0.84"></line><line x1="250" y1="250" x2="200" y2="300" opacity="0.83"></line><line x1="300" y1="250" x2="250" y2="300" opacity="0.65"></line><line x1="350" y1="250" x2="300" y2="300" opacity="0.75"></line><line x1="400" y1="250" x2="350" y2="300" opacity="0.74"></line><line x1="400" y1="250" x2="450" y2="300" opacity="0.67"></line><line x1="450" y1="250" x2="500" y2="300" opacity="0.35"></line><line x1="550" y1="250" x2="500" y2="300" opacity="0.89"></line><line x1="550" y1="250" x2="600" y2="300" opacity="1.00"></line><line x1="600" y1="250" x2="650" y2="300" opacity="0.39"></line><line x1="700" y1="250" x2="650" y2="300" opacity="0.61"></line><line x1="750" y1="250" x2="700" y2="300" opacity="0.33"></line><line x1="800" y1="250" x2="750" y2="300" opacity="0.57"></line><line x1="800" y1="250" x2="850" y2="300" opacity="0.65"></line><line x1="900" y1="250" x2="850" y2="300" opacity="0.54"></line><line x1="900" y1="250" x2="950" y2="300" opacity="0.37"></line><line x1="1000" y1="250" x2="950" y2="300" opacity="0.24"></line><line x1="1050" y1="250" x2="1000" y2="300" opacity="0.53"></line><line x1="1100" y1="250" x2="1050" y2="300" opacity="0.45"></line><line x1="1100" y1="250" x2="1150" y2="300" opacity="0.13"></line><line x1="1200" y1="250" x2="1150" y2="300" opacity="0.25"></line><line x1="1200" y1="250" x2="1250" y2="300" opacity="0.54"></line><line x1="1250" y1="250" x2="1300" y2="300" opacity="0.72"></line><line x1="1350" y1="250" x2="1300" y2="300" opacity="0.40"></line><line x1="1400" y1="250" x2="1350" y2="300" opacity="0.55"></line><line x1="1400" y1="250" x2="1450" y2="300" opacity="0.12"></line><line x1="50" y1="300" x2="0" y2="350" opacity="0.12"></line><line x1="50" y1="300" x2="100" y2="350" opacity="0.73"></line><line x1="150" y1="300" x2="100" y2="350" opacity="0.97"></line><line x1="200" y1="300" x2="150" y2="350" opacity="0.09"></line><line x1="250" y1="300" x2="200" y2="350" opacity="0.28"></line><line x1="250" y1="300" x2="300" y2="350" opacity="0.95"></line><line x1="350" y1="300" x2="300" y2="350" opacity="0.42"></line><line x1="350" y1="300" x2="400" y2="350" opacity="0.80"></line><line x1="400" y1="300" x2="450" y2="350" opacity="0.26"></line><line x1="500" y1="300" x2="450" y2="350" opacity="0.49"></line><line x1="550" y1="300" x2="500" y2="350" opacity="0.92"></line><line x1="600" y1="300" x2="550" y2="350" opacity="0.24"></line><line x1="650" y1="300" x2="600" y2="350" opacity="0.24"></line><line x1="650" y1="300" x2="700" y2="350" opacity="0.92"></line><line x1="750" y1="300" x2="700" y2="350" opacity="0.32"></line><line x1="800" y1="300" x2="750" y2="350" opacity="0.35"></line><line x1="800" y1="300" x2="850" y2="350" opacity="0.89"></line><line x1="900" y1="300" x2="850" y2="350" opacity="0.19"></line><line x1="900" y1="300" x2="950" y2="350" opacity="0.96"></line><line x1="950" y1="300" x2="1000" y2="350" opacity="0.49"></line><line x1="1000" y1="300" x2="1050" y2="350" opacity="0.57"></line><line x1="1050" y1="300" x2="1100" y2="350" opacity="0.11"></line><line x1="1150" y1="300" x2="1100" y2="350" opacity="0.70"></line><line x1="1200" y1="300" x2="1150" y2="350" opacity="0.34"></line><line x1="1250" y1="300" x2="1200" y2="350" opacity="0.33"></line><line x1="1250" y1="300" x2="1300" y2="350" opacity="0.73"></line><line x1="1300" y1="300" x2="1350" y2="350" opacity="0.98"></line><line x1="1350" y1="300" x2="1400" y2="350" opacity="0.39"></line><line x1="1400" y1="300" x2="1450" y2="350" opacity="0.53"></line><line x1="50" y1="350" x2="0" y2="400" opacity="0.25"></line><line x1="100" y1="350" x2="50" y2="400" opacity="0.53"></line><line x1="150" y1="350" x2="100" y2="400" opacity="0.98"></line><line x1="150" y1="350" x2="200" y2="400" opacity="0.54"></line><line x1="200" y1="350" x2="250" y2="400" opacity="0.88"></line><line x1="250" y1="350" x2="300" y2="400" opacity="0.28"></line><line x1="350" y1="350" x2="300" y2="400" opacity="0.11"></line><line x1="350" y1="350" x2="400" y2="400" opacity="0.50"></line><line x1="400" y1="350" x2="450" y2="400" opacity="0.82"></line><line x1="500" y1="350" x2="450" y2="400" opacity="0.68"></line><line x1="550" y1="350" x2="500" y2="400" opacity="0.09"></line><line x1="550" y1="350" x2="600" y2="400" opacity="0.31"></line><line x1="600" y1="350" x2="650" y2="400" opacity="0.08"></line><line x1="700" y1="350" x2="650" y2="400" opacity="0.58"></line><line x1="750" y1="350" x2="700" y2="400" opacity="0.34"></line><line x1="800" y1="350" x2="750" y2="400" opacity="0.40"></line><line x1="800" y1="350" x2="850" y2="400" opacity="0.49"></line><line x1="850" y1="350" x2="900" y2="400" opacity="0.41"></line><line x1="900" y1="350" x2="950" y2="400" opacity="0.25"></line><line x1="950" y1="350" x2="1000" y2="400" opacity="0.91"></line><line x1="1050" y1="350" x2="1000" y2="400" opacity="0.90"></line><line x1="1050" y1="350" x2="1100" y2="400" opacity="0.39"></line><line x1="1100" y1="350" x2="1150" y2="400" opacity="0.08"></line><line x1="1200" y1="350" x2="1150" y2="400" opacity="0.49"></line><line x1="1250" y1="350" x2="1200" y2="400" opacity="0.60"></line><line x1="1250" y1="350" x2="1300" y2="400" opacity="0.69"></line><line x1="1350" y1="350" x2="1300" y2="400" opacity="0.56"></line><line x1="1350" y1="350" x2="1400" y2="400" opacity="0.56"></line><line x1="1450" y1="350" x2="1400" y2="400" opacity="0.26"></line><line x1="50" y1="400" x2="0" y2="450" opacity="0.28"></line><line x1="50" y1="400" x2="100" y2="450" opacity="0.97"></line><line x1="100" y1="400" x2="150" y2="450" opacity="0.78"></line><line x1="200" y1="400" x2="150" y2="450" opacity="0.70"></line><line x1="200" y1="400" x2="250" y2="450" opacity="0.09"></line><line x1="250" y1="400" x2="300" y2="450" opacity="0.25"></line><line x1="300" y1="400" x2="350" y2="450" opacity="0.47"></line><line x1="350" y1="400" x2="400" y2="450" opacity="0.43"></line><line x1="400" y1="400" x2="450" y2="450" opacity="0.29"></line><line x1="500" y1="400" x2="450" y2="450" opacity="0.18"></line><line x1="500" y1="400" x2="550" y2="450" opacity="0.37"></line><line x1="600" y1="400" x2="550" y2="450" opacity="0.99"></line><line x1="650" y1="400" x2="600" y2="450" opacity="0.98"></line><line x1="700" y1="400" x2="650" y2="450" opacity="0.22"></line><line x1="750" y1="400" x2="700" y2="450" opacity="0.74"></line><line x1="800" y1="400" x2="750" y2="450" opacity="0.19"></line><line x1="800" y1="400" x2="850" y2="450" opacity="0.49"></line><line x1="850" y1="400" x2="900" y2="450" opacity="0.38"></line><line x1="950" y1="400" x2="900" y2="450" opacity="0.52"></line><line x1="1000" y1="400" x2="950" y2="450" opacity="0.34"></line><line x1="1050" y1="400" x2="1000" y2="450" opacity="0.34"></line><line x1="1100" y1="400" x2="1050" y2="450" opacity="0.81"></line><line x1="1100" y1="400" x2="1150" y2="450" opacity="0.60"></line><line x1="1150" y1="400" x2="1200" y2="450" opacity="0.56"></line><line x1="1250" y1="400" x2="1200" y2="450" opacity="0.83"></line><line x1="1300" y1="400" x2="1250" y2="450" opacity="0.35"></line><line x1="1350" y1="400" x2="1300" y2="450" opacity="0.39"></line><line x1="1400" y1="400" x2="1350" y2="450" opacity="0.57"></line><line x1="1450" y1="400" x2="1400" y2="450" opacity="0.15"></line><line x1="0" y1="450" x2="50" y2="500" opacity="0.90"></line><line x1="100" y1="450" x2="50" y2="500" opacity="0.11"></line><line x1="100" y1="450" x2="150" y2="500" opacity="0.75"></line><line x1="150" y1="450" x2="200" y2="500" opacity="0.25"></line><line x1="250" y1="450" x2="200" y2="500" opacity="0.49"></line><line x1="300" y1="450" x2="250" y2="500" opacity="0.60"></line><line x1="300" y1="450" x2="350" y2="500" opacity="0.73"></line><line x1="400" y1="450" x2="350" y2="500" opacity="0.90"></line><line x1="450" y1="450" x2="400" y2="500" opacity="0.66"></line><line x1="450" y1="450" x2="500" y2="500" opacity="0.54"></line><line x1="550" y1="450" x2="500" y2="500" opacity="0.60"></line><line x1="600" y1="450" x2="550" y2="500" opacity="0.13"></line><line x1="600" y1="450" x2="650" y2="500" opacity="0.70"></line><line x1="650" y1="450" x2="700" y2="500" opacity="0.32"></line><line x1="700" y1="450" x2="750" y2="500" opacity="0.28"></line><line x1="800" y1="450" x2="750" y2="500" opacity="0.91"></line><line x1="850" y1="450" x2="800" y2="500" opacity="0.64"></line><line x1="900" y1="450" x2="850" y2="500" opacity="0.70"></line><line x1="900" y1="450" x2="950" y2="500" opacity="0.51"></line><line x1="1000" y1="450" x2="950" y2="500" opacity="0.97"></line><line x1="1000" y1="450" x2="1050" y2="500" opacity="0.53"></line><line x1="1050" y1="450" x2="1100" y2="500" opacity="0.64"></line><line x1="1100" y1="450" x2="1150" y2="500" opacity="0.89"></line><line x1="1150" y1="450" x2="1200" y2="500" opacity="0.44"></line><line x1="1250" y1="450" x2="1200" y2="500" opacity="0.25"></line><line x1="1250" y1="450" x2="1300" y2="500" opacity="0.71"></line><line x1="1350" y1="450" x2="1300" y2="500" opacity="0.43"></line><line x1="1400" y1="450" x2="1350" y2="500" opacity="0.73"></line><line x1="1450" y1="450" x2="1400" y2="500" opacity="0.49"></line><line x1="50" y1="500" x2="0" y2="550" opacity="0.79"></line><line x1="100" y1="500" x2="50" y2="550" opacity="0.72"></line><line x1="100" y1="500" x2="150" y2="550" opacity="0.08"></line><line x1="150" y1="500" x2="200" y2="550" opacity="0.44"></line><line x1="200" y1="500" x2="250" y2="550" opacity="0.60"></line><line x1="300" y1="500" x2="250" y2="550" opacity="0.37"></line><line x1="350" y1="500" x2="300" y2="550" opacity="0.79"></line><line x1="400" y1="500" x2="350" y2="550" opacity="0.55"></line><line x1="450" y1="500" x2="400" y2="550" opacity="0.75"></line><line x1="500" y1="500" x2="450" y2="550" opacity="0.79"></line><line x1="550" y1="500" x2="500" y2="550" opacity="0.56"></line><line x1="550" y1="500" x2="600" y2="550" opacity="0.16"></line><line x1="650" y1="500" x2="600" y2="550" opacity="0.49"></line><line x1="650" y1="500" x2="700" y2="550" opacity="0.78"></line><line x1="750" y1="500" x2="700" y2="550" opacity="0.63"></line><line x1="750" y1="500" x2="800" y2="550" opacity="0.69"></line><line x1="800" y1="500" x2="850" y2="550" opacity="0.20"></line><line x1="850" y1="500" x2="900" y2="550" opacity="0.76"></line><line x1="900" y1="500" x2="950" y2="550" opacity="0.27"></line><line x1="1000" y1="500" x2="950" y2="550" opacity="0.94"></line><line x1="1000" y1="500" x2="1050" y2="550" opacity="0.34"></line><line x1="1100" y1="500" x2="1050" y2="550" opacity="0.30"></line><line x1="1150" y1="500" x2="1100" y2="550" opacity="0.40"></line><line x1="1150" y1="500" x2="1200" y2="550" opacity="0.48"></line><line x1="1250" y1="500" x2="1200" y2="550" opacity="0.28"></line><line x1="1300" y1="500" x2="1250" y2="550" opacity="0.19"></line><line x1="1350" y1="500" x2="1300" y2="550" opacity="0.69"></line><line x1="1350" y1="500" x2="1400" y2="550" opacity="0.28"></line><line x1="1400" y1="500" x2="1450" y2="550" opacity="0.34"></line><line x1="0" y1="550" x2="50" y2="600" opacity="0.56"></line><line x1="100" y1="550" x2="50" y2="600" opacity="0.89"></line><line x1="100" y1="550" x2="150" y2="600" opacity="0.36"></line><line x1="200" y1="550" x2="150" y2="600" opacity="0.45"></line><line x1="250" y1="550" x2="200" y2="600" opacity="0.52"></line><line x1="300" y1="550" x2="250" y2="600" opacity="0.89"></line><line x1="350" y1="550" x2="300" y2="600" opacity="0.93"></line><line x1="350" y1="550" x2="400" y2="600" opacity="0.42"></line><line x1="450" y1="550" x2="400" y2="600" opacity="0.11"></line><line x1="450" y1="550" x2="500" y2="600" opacity="0.21"></line><line x1="500" y1="550" x2="550" y2="600" opacity="0.77"></line><line x1="550" y1="550" x2="600" y2="600" opacity="0.20"></line><line x1="650" y1="550" x2="600" y2="600" opacity="0.69"></line><line x1="700" y1="550" x2="650" y2="600" opacity="0.84"></line><line x1="750" y1="550" x2="700" y2="600" opacity="0.19"></line><line x1="800" y1="550" x2="750" y2="600" opacity="0.90"></line><line x1="800" y1="550" x2="850" y2="600" opacity="0.60"></line><line x1="900" y1="550" x2="850" y2="600" opacity="0.25"></line><line x1="950" y1="550" x2="900" y2="600" opacity="0.21"></line><line x1="1000" y1="550" x2="950" y2="600" opacity="0.24"></line><line x1="1000" y1="550" x2="1050" y2="600" opacity="0.20"></line><line x1="1050" y1="550" x2="1100" y2="600" opacity="0.90"></line><line x1="1100" y1="550" x2="1150" y2="600" opacity="0.73"></line><line x1="1150" y1="550" x2="1200" y2="600" opacity="0.86"></line><line x1="1250" y1="550" x2="1200" y2="600" opacity="0.24"></line><line x1="1300" y1="550" x2="1250" y2="600" opacity="1.00"></line><line x1="1350" y1="550" x2="1300" y2="600" opacity="0.56"></line><line x1="1400" y1="550" x2="1350" y2="600" opacity="0.62"></line><line x1="1450" y1="550" x2="1400" y2="600" opacity="0.36"></line><line x1="0" y1="600" x2="50" y2="650" opacity="0.72"></line><line x1="100" y1="600" x2="50" y2="650" opacity="0.93"></line><line x1="150" y1="600" x2="100" y2="650" opacity="0.67"></line><line x1="150" y1="600" x2="200" y2="650" opacity="0.83"></line><line x1="200" y1="600" x2="250" y2="650" opacity="0.21"></line><line x1="300" y1="600" x2="250" y2="650" opacity="0.35"></line><line x1="300" y1="600" x2="350" y2="650" opacity="0.56"></line><line x1="400" y1="600" x2="350" y2="650" opacity="0.31"></line><line x1="400" y1="600" x2="450" y2="650" opacity="0.38"></line><line x1="450" y1="600" x2="500" y2="650" opacity="0.61"></line><line x1="550" y1="600" x2="500" y2="650" opacity="0.54"></line><line x1="550" y1="600" x2="600" y2="650" opacity="0.38"></line><line x1="600" y1="600" x2="650" y2="650" opacity="0.57"></line><line x1="650" y1="600" x2="700" y2="650" opacity="0.41"></line><line x1="700" y1="600" x2="750" y2="650" opacity="0.52"></line><line x1="800" y1="600" x2="750" y2="650" opacity="0.38"></line><line x1="800" y1="600" x2="850" y2="650" opacity="0.93"></line><line x1="900" y1="600" x2="850" y2="650" opacity="0.86"></line><line x1="900" y1="600" x2="950" y2="650" opacity="0.79"></line><line x1="1000" y1="600" x2="950" y2="650" opacity="0.23"></line><line x1="1000" y1="600" x2="1050" y2="650" opacity="0.46"></line><line x1="1050" y1="600" x2="1100" y2="650" opacity="0.49"></line><line x1="1150" y1="600" x2="1100" y2="650" opacity="0.65"></line><line x1="1150" y1="600" x2="1200" y2="650" opacity="0.24"></line><line x1="1250" y1="600" x2="1200" y2="650" opacity="0.61"></line><line x1="1300" y1="600" x2="1250" y2="650" opacity="0.71"></line><line x1="1300" y1="600" x2="1350" y2="650" opacity="0.97"></line><line x1="1350" y1="600" x2="1400" y2="650" opacity="0.35"></line><line x1="1450" y1="600" x2="1400" y2="650" opacity="0.57"></line><line x1="0" y1="650" x2="50" y2="700" opacity="0.83"></line><line x1="50" y1="650" x2="100" y2="700" opacity="0.39"></line><line x1="150" y1="650" x2="100" y2="700" opacity="0.60"></line><line x1="150" y1="650" x2="200" y2="700" opacity="0.34"></line><line x1="200" y1="650" x2="250" y2="700" opacity="0.61"></line><line x1="300" y1="650" x2="250" y2="700" opacity="0.47"></line><line x1="350" y1="650" x2="300" y2="700" opacity="0.73"></line><line x1="350" y1="650" x2="400" y2="700" opacity="0.72"></line><line x1="450" y1="650" x2="400" y2="700" opacity="0.52"></line><line x1="500" y1="650" x2="450" y2="700" opacity="0.61"></line><line x1="500" y1="650" x2="550" y2="700" opacity="0.12"></line><line x1="550" y1="650" x2="600" y2="700" opacity="0.23"></line><line x1="650" y1="650" x2="600" y2="700" opacity="0.49"></line><line x1="700" y1="650" x2="650" y2="700" opacity="0.24"></line><line x1="750" y1="650" x2="700" y2="700" opacity="0.17"></line><line x1="750" y1="650" x2="800" y2="700" opacity="0.51"></line><line x1="850" y1="650" x2="800" y2="700" opacity="0.17"></line><line x1="850" y1="650" x2="900" y2="700" opacity="0.07"></line><line x1="900" y1="650" x2="950" y2="700" opacity="0.66"></line><line x1="1000" y1="650" x2="950" y2="700" opacity="0.22"></line><line x1="1050" y1="650" x2="1000" y2="700" opacity="0.45"></line><line x1="1100" y1="650" x2="1050" y2="700" opacity="0.14"></line><line x1="1100" y1="650" x2="1150" y2="700" opacity="0.43"></line><line x1="1200" y1="650" x2="1150" y2="700" opacity="0.53"></line><line x1="1250" y1="650" x2="1200" y2="700" opacity="0.30"></line><line x1="1300" y1="650" x2="1250" y2="700" opacity="0.87"></line><line x1="1350" y1="650" x2="1300" y2="700" opacity="0.07"></line><line x1="1350" y1="650" x2="1400" y2="700" opacity="0.29"></line><line x1="1450" y1="650" x2="1400" y2="700" opacity="0.41"></line><line x1="50" y1="700" x2="0" y2="750" opacity="0.35"></line><line x1="100" y1="700" x2="50" y2="750" opacity="0.68"></line><line x1="100" y1="700" x2="150" y2="750" opacity="0.81"></line><line x1="150" y1="700" x2="200" y2="750" opacity="0.65"></line><line x1="200" y1="700" x2="250" y2="750" opacity="0.63"></line><line x1="300" y1="700" x2="250" y2="750" opacity="0.30"></line><line x1="350" y1="700" x2="300" y2="750" opacity="0.44"></line><line x1="350" y1="700" x2="400" y2="750" opacity="0.53"></line><line x1="400" y1="700" x2="450" y2="750" opacity="0.08"></line><line x1="500" y1="700" x2="450" y2="750" opacity="0.67"></line><line x1="500" y1="700" x2="550" y2="750" opacity="0.18"></line><line x1="600" y1="700" x2="550" y2="750" opacity="0.44"></line><line x1="600" y1="700" x2="650" y2="750" opacity="0.91"></line><line x1="700" y1="700" x2="650" y2="750" opacity="0.66"></line><line x1="750" y1="700" x2="700" y2="750" opacity="0.36"></line><line x1="750" y1="700" x2="800" y2="750" opacity="0.41"></line><line x1="800" y1="700" x2="850" y2="750" opacity="0.17"></line><line x1="900" y1="700" x2="850" y2="750" opacity="0.60"></line><line x1="900" y1="700" x2="950" y2="750" opacity="0.64"></line><line x1="950" y1="700" x2="1000" y2="750" opacity="0.18"></line><line x1="1050" y1="700" x2="1000" y2="750" opacity="0.37"></line><line x1="1100" y1="700" x2="1050" y2="750" opacity="0.19"></line><line x1="1100" y1="700" x2="1150" y2="750" opacity="0.55"></line><line x1="1200" y1="700" x2="1150" y2="750" opacity="0.36"></line><line x1="1250" y1="700" x2="1200" y2="750" opacity="0.61"></line><line x1="1250" y1="700" x2="1300" y2="750" opacity="0.30"></line><line x1="1300" y1="700" x2="1350" y2="750" opacity="0.95"></line><line x1="1400" y1="700" x2="1350" y2="750" opacity="0.21"></line><line x1="1400" y1="700" x2="1450" y2="750" opacity="0.87"></line><line x1="50" y1="750" x2="0" y2="800" opacity="0.73"></line><line x1="100" y1="750" x2="50" y2="800" opacity="0.59"></line><line x1="100" y1="750" x2="150" y2="800" opacity="0.38"></line><line x1="150" y1="750" x2="200" y2="800" opacity="0.60"></line><line x1="250" y1="750" x2="200" y2="800" opacity="0.62"></line><line x1="250" y1="750" x2="300" y2="800" opacity="0.23"></line><line x1="350" y1="750" x2="300" y2="800" opacity="0.23"></line><line x1="400" y1="750" x2="350" y2="800" opacity="0.57"></line><line x1="450" y1="750" x2="400" y2="800" opacity="0.42"></line><line x1="500" y1="750" x2="450" y2="800" opacity="0.36"></line><line x1="550" y1="750" x2="500" y2="800" opacity="0.25"></line><line x1="600" y1="750" x2="550" y2="800" opacity="0.78"></line><line x1="600" y1="750" x2="650" y2="800" opacity="0.38"></line><line x1="650" y1="750" x2="700" y2="800" opacity="0.16"></line><line x1="750" y1="750" x2="700" y2="800" opacity="0.56"></line><line x1="750" y1="750" x2="800" y2="800" opacity="0.14"></line><line x1="800" y1="750" x2="850" y2="800" opacity="0.20"></line><line x1="850" y1="750" x2="900" y2="800" opacity="0.21"></line><line x1="900" y1="750" x2="950" y2="800" opacity="0.44"></line><line x1="1000" y1="750" x2="950" y2="800" opacity="0.59"></line><line x1="1050" y1="750" x2="1000" y2="800" opacity="0.31"></line><line x1="1100" y1="750" x2="1050" y2="800" opacity="0.09"></line><line x1="1100" y1="750" x2="1150" y2="800" opacity="0.91"></line><line x1="1200" y1="750" x2="1150" y2="800" opacity="0.68"></line><line x1="1250" y1="750" x2="1200" y2="800" opacity="0.36"></line><line x1="1300" y1="750" x2="1250" y2="800" opacity="0.52"></line><line x1="1300" y1="750" x2="1350" y2="800" opacity="0.59"></line><line x1="1400" y1="750" x2="1350" y2="800" opacity="0.16"></line><line x1="1400" y1="750" x2="1450" y2="800" opacity="0.26"></line><line x1="50" y1="800" x2="0" y2="850" opacity="0.28"></line><line x1="50" y1="800" x2="100" y2="850" opacity="0.82"></line><line x1="100" y1="800" x2="150" y2="850" opacity="0.48"></line><line x1="200" y1="800" x2="150" y2="850" opacity="0.77"></line><line x1="200" y1="800" x2="250" y2="850" opacity="0.65"></line><line x1="300" y1="800" x2="250" y2="850" opacity="0.20"></line><line x1="300" y1="800" x2="350" y2="850" opacity="0.18"></line><line x1="400" y1="800" x2="350" y2="850" opacity="0.99"></line><line x1="450" y1="800" x2="400" y2="850" opacity="0.30"></line><line x1="500" y1="800" x2="450" y2="850" opacity="0.19"></line><line x1="500" y1="800" x2="550" y2="850" opacity="0.21"></line><line x1="550" y1="800" x2="600" y2="850" opacity="0.86"></line><line x1="650" y1="800" x2="600" y2="850" opacity="0.87"></line><line x1="650" y1="800" x2="700" y2="850" opacity="0.45"></line><line x1="700" y1="800" x2="750" y2="850" opacity="0.28"></line><line x1="800" y1="800" x2="750" y2="850" opacity="0.83"></line><line x1="850" y1="800" x2="800" y2="850" opacity="0.42"></line><line x1="850" y1="800" x2="900" y2="850" opacity="0.70"></line><line x1="900" y1="800" x2="950" y2="850" opacity="0.75"></line><line x1="1000" y1="800" x2="950" y2="850" opacity="0.19"></line><line x1="1000" y1="800" x2="1050" y2="850" opacity="0.98"></line><line x1="1050" y1="800" x2="1100" y2="850" opacity="0.81"></line><line x1="1150" y1="800" x2="1100" y2="850" opacity="0.97"></line><line x1="1150" y1="800" x2="1200" y2="850" opacity="0.33"></line><line x1="1250" y1="800" x2="1200" y2="850" opacity="0.81"></line><line x1="1250" y1="800" x2="1300" y2="850" opacity="0.12"></line><line x1="1300" y1="800" x2="1350" y2="850" opacity="0.50"></line><line x1="1400" y1="800" x2="1350" y2="850" opacity="0.52"></line><line x1="1450" y1="800" x2="1400" y2="850" opacity="0.21"></line></g></svg>