<svg id="Layer_1" enable-background="new 0 0 64 64" viewBox="0 0 64 64" xmlns="http://www.w3.org/2000/svg"><g><path d="m38 36h-34v12c0 2.2 1.8 4 4 4h22 1 2 1 4z" fill="#61be94"/></g><g><path d="m60 24v-8c0-2.2-1.8-4-4-4h-48c-2.2 0-4 1.8-4 4v8z" fill="#61be94"/></g><g fill="#202724"><path d="m56 11h-48c-2.8 0-5 2.2-5 5v32c0 2.8 2.2 5 5 5h4v3h2v-3h36v3h2v-3h4c2.8 0 5-2.2 5-5v-32c0-2.8-2.2-5-5-5zm-48 2h48c1.7 0 3 1.3 3 3v7h-10v2h10v10h-54v-10h38v-2h-38v-7c0-1.7 1.3-3 3-3zm29 24v14h-10v-14zm-32 11v-11h20v14h-17c-1.7 0-3-1.3-3-3zm51 3h-17v-14h20v11c0 1.7-1.3 3-3 3z"/><path d="m45 23h2v2h-2z"/><path d="m19 41h2v6h-2z"/><path d="m43 41h2v6h-2z"/><path d="m29 17h6v2h-6z"/><path d="m29 29h6v2h-6z"/></g></svg>