<svg id="Capa_1" enable-background="new 0 0 510 510" height="512" viewBox="0 0 510 510" width="512" xmlns="http://www.w3.org/2000/svg" xmlns:xlink="http://www.w3.org/1999/xlink"><linearGradient id="lg1"><stop offset="0" stop-color="#fef0ae"/><stop offset="1" stop-color="#fac600"/></linearGradient><linearGradient id="SVGID_1_" gradientUnits="userSpaceOnUse" x1="204.776" x2="268.878" xlink:href="#lg1" y1="374.98" y2="505.188"/><linearGradient id="lg2"><stop offset="0" stop-color="#fea613" stop-opacity="0"/><stop offset="1" stop-color="#e94444"/></linearGradient><linearGradient id="SVGID_00000075155647819934797370000011397457357619849106_" gradientUnits="userSpaceOnUse" x1="278.995" x2="262.995" xlink:href="#lg2" y1="496.618" y2="379.951"/><linearGradient id="SVGID_00000163776656531640708310000010349188175728344195_" gradientUnits="userSpaceOnUse" x1="255.002" x2="255.002" xlink:href="#lg2" y1="463.51" y2="519.821"/><linearGradient id="SVGID_00000057853553921098073470000017483191749428369818_" gradientUnits="userSpaceOnUse" x1="119.019" x2="369.051" y1="40.518" y2="400.001"><stop offset="0" stop-color="#fe9738"/><stop offset="1" stop-color="#ef4424"/></linearGradient><linearGradient id="lg3"><stop offset="0" stop-color="#ef4424" stop-opacity="0"/><stop offset="1" stop-color="#883f2e"/></linearGradient><linearGradient id="SVGID_00000142168016075133931030000008091105545744522681_" gradientUnits="userSpaceOnUse" x1="396.65" x2="269.984" xlink:href="#lg3" y1="365.645" y2="224.312"/><linearGradient id="SVGID_00000170973361889076276810000007690779701207278495_" gradientUnits="userSpaceOnUse" x1="255.002" x2="255.002" xlink:href="#lg3" y1="474" y2="361.889"/><linearGradient id="SVGID_00000137092492714016329200000004510963998234681780_" gradientUnits="userSpaceOnUse" x1="165.496" x2="231.496" xlink:href="#lg3" y1="127.04" y2="211.04"/><linearGradient id="SVGID_00000153699028271601778000000004129342186604045963_" gradientUnits="userSpaceOnUse" x1="10.038" x2="172.038" xlink:href="#lg3" y1="147.626" y2="243.626"/><linearGradient id="SVGID_00000160182328136539324220000002917751350047423162_" gradientUnits="userSpaceOnUse" x1="325.002" x2="178.988" xlink:href="#lg3" y1="248.254" y2="248.254"/><linearGradient id="SVGID_00000096768790330197669890000008385615365510874814_" gradientUnits="userSpaceOnUse" x1="325.585" x2="262.585" xlink:href="#lg3" y1="146.269" y2="238.269"/><linearGradient id="SVGID_00000000202222815787642760000010692577373747036862_" gradientUnits="userSpaceOnUse" x1="536.682" x2="368.682" xlink:href="#lg3" y1="146.474" y2="191.474"/><linearGradient id="SVGID_00000041974143027827276260000013411920313475397558_" gradientUnits="userSpaceOnUse" x1="333.912" x2="405.195" xlink:href="#lg1" y1="73.948" y2="156.014"/><linearGradient id="SVGID_00000043435680570807442770000006580015762419055794_" gradientUnits="userSpaceOnUse" x1="388.276" x2="344.276" xlink:href="#lg2" y1="90.173" y2="148.173"/><linearGradient id="lg4"><stop offset="0" stop-color="#feaee1"/><stop offset="1" stop-color="#fe5694"/></linearGradient><linearGradient id="SVGID_00000093874689989052591450000013706063401274127744_" gradientUnits="userSpaceOnUse" x1="349.567" x2="389.495" xlink:href="#lg4" y1="91.971" y2="137.938"/><linearGradient id="SVGID_00000101081754740257977180000002505670369642422409_" gradientUnits="userSpaceOnUse" x1="377.639" x2="361.639" y1="100.935" y2="128.435"><stop offset="0" stop-color="#fe0364" stop-opacity="0"/><stop offset=".399" stop-color="#f70360" stop-opacity=".399"/><stop offset=".9738" stop-color="#e40257" stop-opacity=".974"/><stop offset="1" stop-color="#e30256"/></linearGradient><linearGradient id="SVGID_00000048481341314869027840000008240638715516980892_" gradientUnits="userSpaceOnUse" x1="104.912" x2="176.195" xlink:href="#lg1" y1="73.948" y2="156.014"/><linearGradient id="SVGID_00000168823792746431292350000018171699405388761277_" gradientUnits="userSpaceOnUse" x1="120.567" x2="160.495" xlink:href="#lg4" y1="91.971" y2="137.938"/><linearGradient id="SVGID_00000132775787405350869540000011080937916207143576_" gradientUnits="userSpaceOnUse" x1="151.096" x2="354.384" xlink:href="#lg1" y1="137.884" y2="371.921"/><linearGradient id="SVGID_00000170975712580996308170000017017433996490315658_" gradientUnits="userSpaceOnUse" x1="255.002" x2="255.002" xlink:href="#lg2" y1="306" y2="411.304"/><linearGradient id="SVGID_00000038409617378950096120000016752626804257050509_" gradientUnits="userSpaceOnUse" x1="246.639" x2="279.639" y1="304.718" y2="400.718"><stop offset="0" stop-color="#fff"/><stop offset="1" stop-color="#e1d3ce"/></linearGradient><linearGradient id="lg5"><stop offset="0" stop-color="#9e9797" stop-opacity="0"/><stop offset=".3104" stop-color="#968f8f" stop-opacity=".31"/><stop offset=".7849" stop-color="#827a7a" stop-opacity=".785"/><stop offset="1" stop-color="#766e6e"/></linearGradient><linearGradient id="SVGID_00000029013108625496573700000008547693180335588740_" gradientUnits="userSpaceOnUse" x1="169.185" x2="289.857" xlink:href="#lg5" y1="273.24" y2="393.912"/><linearGradient id="SVGID_00000078017840794727351590000011687961050356327076_" gradientUnits="userSpaceOnUse" x1="141.607" x2="262.279" xlink:href="#lg5" y1="300.818" y2="421.489"/><linearGradient id="SVGID_00000097473552264387317240000015723205482566444946_" gradientUnits="userSpaceOnUse" x1="143.453" x2="264.124" xlink:href="#lg5" y1="298.973" y2="419.644"/><linearGradient id="SVGID_00000032648006148324785270000003350079443914749596_" gradientUnits="userSpaceOnUse" x1="264.154" x2="444.815" xlink:href="#lg5" y1="273.116" y2="453.777"/><linearGradient id="SVGID_00000022519755467943914400000008415718774600990866_" gradientUnits="userSpaceOnUse" x1="271.684" x2="452.344" xlink:href="#lg5" y1="265.587" y2="446.247"/><linearGradient id="SVGID_00000067228060843560920410000005918937919917731216_" gradientUnits="userSpaceOnUse" x1="250.467" x2="431.128" xlink:href="#lg5" y1="286.803" y2="467.464"/><linearGradient id="SVGID_00000075854831599366116470000000731998747078232982_" gradientUnits="userSpaceOnUse" x1="297.78" x2="297.28" xlink:href="#lg5" y1="340.584" y2="404.584"/><linearGradient id="lg6"><stop offset="0" stop-color="#5a5a5a"/><stop offset="1" stop-color="#444"/></linearGradient><linearGradient id="SVGID_00000061429348634252004880000001321553482043390643_" gradientUnits="userSpaceOnUse" x1="148.002" x2="184.764" xlink:href="#lg6" y1="231.252" y2="258.314"/><linearGradient id="SVGID_00000026862200788501791950000003930080867177970310_" gradientUnits="userSpaceOnUse" x1="325.67" x2="358.348" xlink:href="#lg6" y1="229.668" y2="254.176"/><linearGradient id="SVGID_00000078044843809562738770000011782419691978202041_" gradientUnits="userSpaceOnUse" x1="242.065" x2="265.224" xlink:href="#lg6" y1="256.646" y2="279.804"/><g><g><path d="m445.484 510h-380.964c-9.066 0-16.415-7.349-16.415-16.415 0-87.577 70.995-158.572 158.572-158.572h96.65c87.577 0 158.572 70.995 158.572 158.572 0 9.066-7.35 16.415-16.415 16.415z" fill="url(#SVGID_1_)"/><path d="m303.327 335.018h-96.65c-43.787 0-83.432 17.746-112.127 46.441-5.01 5.01-9.669 10.379-13.969 16.026l112.515 112.515h252.386c4.528 0 8.639-1.832 11.605-4.809 2.977-2.966 4.809-7.077 4.809-11.605 0-87.574-70.995-158.568-158.569-158.568z" fill="url(#SVGID_00000075155647819934797370000011397457357619849106_)"/><path d="m48.105 493.585c0 9.066 7.349 16.415 16.415 16.415h380.964c9.066 0 16.415-7.349 16.415-16.415 0-23.343-5.046-45.506-14.103-65.463h-385.588c-9.057 19.957-14.103 42.12-14.103 65.463z" fill="url(#SVGID_00000163776656531640708310000010349188175728344195_)"/></g><g><path d="m414.745 359.756 25.558 17.993c4.944 3.481 11.555 3.431 16.447-.123l4.883-3.548c7.51-5.457 14.214-11.689 20.069-18.52 4.594-5.36 4.545-13.284-.126-18.577l-22.088-25.025c-1.294-1.466.582-3.567 2.185-2.447l20.589 14.391c7.733 5.405 18.474 1.857 21.505-7.077 7.934-23.388 8.501-49.25.487-73.915l-52.588-161.841c-15.706-48.339-60.753-81.067-111.579-81.067h-176.532c-47.033 0-88.718 30.286-103.252 75.017l-54.551 167.891c-12.874 39.624-3.622 82.337 22.778 112.907 5.518 6.39 15.376 6.547 21.1.341l17.132-18.578c2.523-2.736 7.047-.415 6.297 3.23l-7.331 35.616c-1.119 5.436 1.047 11.024 5.537 14.286l114.778 83.391c41.12 29.875 96.8 29.875 137.92 0l89.241-64.837c5.13-3.728 7.151-10.415 4.942-16.36l-10.332-27.806c-1.569-4.219 3.25-7.933 6.931-5.342z" fill="url(#SVGID_00000057853553921098073470000017483191749428369818_)"/><path d="m103.92 359.833 135.634 135.634c29.161 3.866 59.463-3.242 84.409-21.366l89.241-64.837c5.131-3.728 7.151-10.416 4.942-16.36l-10.332-27.806c-1.568-4.219 3.252-7.933 6.932-5.342l25.558 17.993c4.944 3.481 11.555 3.431 16.447-.123l4.883-3.548c7.51-5.457 14.214-11.689 20.069-18.52 4.594-5.36 4.545-13.284-.126-18.577l-22.088-25.025c-1.293-1.466.582-3.567 2.185-2.447l20.589 14.391c7.733 5.405 18.474 1.857 21.505-7.077 7.934-23.388 8.501-49.25.487-73.915l-39.77-122.388-50.459-50.459z" fill="url(#SVGID_00000142168016075133931030000008091105545744522681_)"/><path d="m255.002 253.022-120.972 183.29 52.012 37.789c41.12 29.875 96.8 29.875 137.92 0l52.012-37.789z" fill="url(#SVGID_00000170973361889076276810000007690779701207278495_)"/><path d="m340.087 0h-176.532c-47.033 0-88.718 30.286-103.252 75.017l-54.551 167.891c-12.875 39.624-3.622 82.337 22.778 112.907 5.518 6.39 15.376 6.547 21.1.341l17.132-18.578 325.379-325.379c-15.832-7.846-33.555-12.199-52.054-12.199z" fill="url(#SVGID_00000137092492714016329200000004510963998234681780_)"/><path d="m255.002 197.3-254.92 77.95c.35-10.81 2.2-21.68 5.67-32.34l54.55-167.89c2.83-8.7 6.69-16.86 11.43-24.36z" fill="url(#SVGID_00000153699028271601778000000004129342186604045963_)"/><path d="m451.666 81.067c-15.706-48.339-60.753-81.067-111.579-81.067h-85.091v496.508c24.202.001 48.404-7.467 68.966-22.406l89.241-64.837c5.131-3.728 7.151-10.416 4.942-16.36l-10.332-27.806c-1.568-4.219 3.252-7.933 6.932-5.342l25.558 17.993c4.944 3.481 11.555 3.431 16.447-.123l4.883-3.548c7.51-5.457 14.214-11.689 20.069-18.52 4.594-5.36 4.545-13.284-.126-18.577l-22.088-25.025c-1.293-1.466.582-3.567 2.185-2.447l20.589 14.391c7.733 5.405 18.474 1.857 21.505-7.077 7.934-23.388 8.501-49.25.487-73.915z" fill="url(#SVGID_00000160182328136539324220000002917751350047423162_)"/><path d="m481.701 355.558c4.594-5.36 4.545-13.284-.126-18.577l-22.088-25.025c-1.293-1.466.582-3.567 2.185-2.447l20.589 14.391c7.733 5.405 18.474 1.857 21.505-7.077 7.934-23.388 8.501-49.25.487-73.915l-52.587-161.841c-15.706-48.339-60.753-81.067-111.579-81.067h-176.532c-14.464 0-28.418 2.874-41.237 8.142-1.498 1.929-2.984 3.325-4.459 4.056l353.747 353.747c3.6-3.276 6.972-6.743 10.095-10.387z" fill="url(#SVGID_00000096768790330197669890000008385615365510874814_)"/><path d="m504.252 242.91-52.59-161.84c-3.47-10.68-8.37-20.59-14.45-29.56l-182.21 145.79 254.92 77.95c-.35-10.81-2.21-21.69-5.67-32.34z" fill="url(#SVGID_00000000202222815787642760000010692577373747036862_)"/><g><g><circle cx="369.502" cy="114.921" fill="url(#SVGID_00000041974143027827276260000013411920313475397558_)" r="63.207"/><circle cx="369.502" cy="114.921" fill="url(#SVGID_00000043435680570807442770000006580015762419055794_)" r="63.207"/><circle cx="369.502" cy="114.921" fill="url(#SVGID_00000093874689989052591450000013706063401274127744_)" r="35.404"/><circle cx="369.502" cy="114.921" fill="url(#SVGID_00000101081754740257977180000002505670369642422409_)" r="35.404"/></g><g><circle cx="140.502" cy="114.921" fill="url(#SVGID_00000048481341314869027840000008240638715516980892_)" r="63.207"/><circle cx="140.502" cy="114.921" fill="url(#SVGID_00000168823792746431292350000018171699405388761277_)" r="35.404"/></g></g><path d="m369.105 381.44c-75.449 20.441-152.763 20.44-228.208 0-38.99-10.563-64.477-47.94-59.95-88.081 3.95-35.021 7.908-60.466 11.864-86.688 12.106-80.232 81.05-139.561 162.19-139.561 81.14 0 150.084 59.329 162.19 139.561 3.956 26.222 7.914 51.667 11.864 86.688 4.529 40.14-20.96 77.517-59.95 88.081z" fill="url(#SVGID_00000132775787405350869540000011080937916207143576_)"/><path d="m80.948 293.359c-4.528 40.141 20.96 77.518 59.95 88.081 75.445 20.44 152.759 20.44 228.208 0 38.99-10.563 64.479-47.94 59.951-88.082-1.903-16.876-3.809-31.517-5.715-45.104h-336.68c-1.906 13.587-3.811 28.229-5.714 45.105z" fill="url(#SVGID_00000170975712580996308170000017017433996490315658_)"/><g><path d="m297.87 272.83c-17.184 0-68.553 0-85.737 0-31.048 0-56.217 25.169-56.217 56.217s25.169 56.217 56.217 56.217c17.184 0 32.557-7.719 42.869-19.868 10.312 12.149 25.685 19.868 42.869 19.868 31.048 0 56.217-25.169 56.217-56.217-.001-31.048-25.17-56.217-56.218-56.217z" fill="url(#SVGID_00000038409617378950096120000016752626804257050509_)"/><g><g><circle cx="207.455" cy="311.51" fill="url(#SVGID_00000029013108625496573700000008547693180335588740_)" r="16.392"/><circle cx="172.348" cy="331.559" fill="url(#SVGID_00000078017840794727351590000011687961050356327076_)" r="7.326"/><circle cx="195.41" cy="350.93" fill="url(#SVGID_00000097473552264387317240000015723205482566444946_)" r="12.045"/></g><g><circle cx="302.549" cy="311.51" fill="url(#SVGID_00000032648006148324785270000003350079443914749596_)" r="16.392"/><circle cx="337.655" cy="331.559" fill="url(#SVGID_00000022519755467943914400000008415718774600990866_)" r="7.326"/><circle cx="314.594" cy="350.93" fill="url(#SVGID_00000067228060843560920410000005918937919917731216_)" r="12.045"/></g></g><circle cx="297.87" cy="329.046" fill="url(#SVGID_00000075854831599366116470000000731998747078232982_)" r="56.217"/></g><g><path d="m165.271 277.232c-14.623 0-26.478-11.855-26.478-26.478v-13.578c0-14.623 11.854-26.478 26.478-26.478 14.623 0 26.478 11.855 26.478 26.478v13.578c0 14.623-11.855 26.478-26.478 26.478z" fill="url(#SVGID_00000061429348634252004880000001321553482043390643_)"/><path d="m344.733 277.232c-14.624 0-26.478-11.855-26.478-26.478v-13.578c0-14.623 11.854-26.478 26.478-26.478 14.623 0 26.478 11.855 26.478 26.478v13.578c0 14.623-11.855 26.478-26.478 26.478z" fill="url(#SVGID_00000026862200788501791950000003930080867177970310_)"/></g><path d="m230.316 300.336-15.855-14.047c-15.342-13.592-5.728-38.942 14.769-38.942h51.543c20.497 0 30.111 25.35 14.769 38.942l-15.855 14.047c-14.09 12.483-35.281 12.483-49.371 0z" fill="url(#SVGID_00000078044843809562738770000011782419691978202041_)"/></g></g></svg>