<svg fill="none" height="300" viewBox="0 0 24 24" width="300" xmlns="http://www.w3.org/2000/svg" xmlns:xlink="http://www.w3.org/1999/xlink" version="1.1" xmlns:svgjs="http://svgjs.dev/svgjs"><g width="100%" height="100%" transform="matrix(1,0,0,1,0,0)"><clipPath id="clip0_120_1100"><path d="m0 0h24v24h-24z" fill="#000000" fill-opacity="1" data-original-color="#000000ff" stroke="none" stroke-opacity="1"/></clipPath><g clip-path="url(#clip0_120_1100)"><path clip-rule="evenodd" d="m4 0c-2.20914 0-4 1.79086-4 4v16c0 2.2091 1.79086 4 4 4h16c2.2091 0 4-1.7909 4-4v-16c0-2.20914-1.7909-4-4-4z" fill="#e7f5ff" fill-rule="evenodd" fill-opacity="0" data-original-color="#e7f5ffff" stroke="none" stroke-opacity="1"/><g fill="#309be9"><path d="m13.3828 11.2132c-.6656.4943-1.49.7868-2.3828.7868-2.20914 0-4-1.7909-4-4 0-2.20914 1.79086-4 4-4 2.2091 0 4 1.79086 4 4 0 1.3008-.6209 2.4566-1.5826 3.1871-.0117.0084-.0233.0171-.0346.0261z" fill="#043535" fill-opacity="1" data-original-color="#309be9ff" stroke="none" stroke-opacity="1"/><path d="m11 13c-3.86599 0-7 3.134-7 7h9v-1h-2c-.5523 0-1-.4477-1-1v-4c0-.5523.4477-1 1-1z" fill="#043535" fill-opacity="1" data-original-color="#309be9ff" stroke="none" stroke-opacity="1"/><path d="m12 16.6605c0 .1875.152.3395.3395.3395h2.6605v2.6605c0 .1875.152.3395.3395.3395h1.321c.1875 0 .3395-.152.3395-.3395v-2.6605h2.6605c.1875 0 .3395-.152.3395-.3395v-1.321c0-.1875-.152-.3395-.3395-.3395h-2.6605v-2.6605c0-.1875-.152-.3395-.3395-.3395h-1.321c-.1875 0-.3395.152-.3395.3395v2.6605h-2.6605c-.1875 0-.3395.152-.3395.3395z" fill="#043535" fill-opacity="1" data-original-color="#309be9ff" stroke="none" stroke-opacity="1"/><path clip-rule="evenodd" d="m4 0c-2.20914 0-4 1.79086-4 4v16c0 2.2091 1.79086 4 4 4h16c2.2091 0 4-1.7909 4-4v-16c0-2.20914-1.7909-4-4-4zm-2 4c0-1.10457.89543-2 2-2h16c1.1046 0 2 .89543 2 2v16c0 1.1046-.8954 2-2 2h-16c-1.10457 0-2-.8954-2-2z" fill-rule="evenodd" fill="#043535" fill-opacity="1" data-original-color="#309be9ff" stroke="none" stroke-opacity="1"/></g></g></g></svg>