<svg id="_1_Account" viewBox="0 0 512 512" xmlns="http://www.w3.org/2000/svg" data-name="1 Account" width="300" height="300" version="1.1" xmlns:xlink="http://www.w3.org/1999/xlink" xmlns:svgjs="http://svgjs.dev/svgjs"><g width="100%" height="100%" transform="matrix(1,0,0,1,0,0)"><path d="m421.62 11h-331.24c-43.84 0-79.38 35.54-79.38 79.38v331.24c0 43.84 35.54 79.38 79.38 79.38h331.24c43.84 0 79.38-35.54 79.38-79.38v-331.24c0-43.84-35.54-79.38-79.38-79.38zm-165.62 65.8c46.79 0 84.73 37.93 84.73 84.73s-37.93 84.73-84.73 84.73-84.73-37.93-84.73-84.73 37.93-84.73 84.73-84.73zm154.67 276.6c0 45.18-36.62 81.8-81.8 81.8h-145.74c-45.18 0-81.8-36.62-81.8-81.8 0-45.18 36.62-81.8 81.8-81.8h145.73c45.18 0 81.8 36.62 81.8 81.8z" fill="#00b9ae" fill-opacity="1" data-original-color="#8ad4eeff" stroke="none" stroke-opacity="1"/><g fill="#1d719f"><path d="m421.61 507h-331.23c-47.08 0-85.38-38.31-85.38-85.39v-194.14c0-3.31 2.69-6 6-6s6 2.69 6 6v194.14c0 40.47 32.92 73.39 73.38 73.39h331.23c40.47 0 73.39-32.92 73.39-73.39v-331.23c0-40.46-32.92-73.38-73.39-73.38h-331.23c-40.46 0-73.38 32.92-73.38 73.38v90.29c0 3.31-2.69 6-6 6s-6-2.69-6-6v-90.29c0-47.07 38.31-85.38 85.38-85.38h331.23c47.08 0 85.39 38.3 85.39 85.38v331.23c0 47.08-38.31 85.39-85.39 85.39z" fill="#0c5075" fill-opacity="0.8274509803921568" data-original-color="#1d719fff" stroke="none" stroke-opacity="1"/><path d="m11 214.57c-3.31 0-6-2.69-6-6v-9c0-3.31 2.69-6 6-6s6 2.69 6 6v9c0 3.31-2.69 6-6 6z" fill="#0c5075" fill-opacity="0.8274509803921568" data-original-color="#1d719fff" stroke="none" stroke-opacity="1"/><path d="m328.86 441.2h-145.73c-48.42 0-87.8-39.39-87.8-87.8s39.39-87.8 87.8-87.8h145.73c48.42 0 87.8 39.39 87.8 87.8s-39.39 87.8-87.8 87.8zm-145.73-163.61c-41.8 0-75.8 34.01-75.8 75.8s34.01 75.8 75.8 75.8h145.73c41.8 0 75.8-34.01 75.8-75.8s-34.01-75.8-75.8-75.8z" fill="#0c5075" fill-opacity="0.8274509803921568" data-original-color="#1d719fff" stroke="none" stroke-opacity="1"/><path d="m256 252.25c-50.03 0-90.73-40.7-90.73-90.73s40.7-90.73 90.73-90.73 90.73 40.7 90.73 90.73-40.7 90.73-90.73 90.73zm0-169.46c-43.41 0-78.73 35.32-78.73 78.73s35.32 78.73 78.73 78.73 78.73-35.32 78.73-78.73-35.32-78.73-78.73-78.73z" fill="#0c5075" fill-opacity="0.8274509803921568" data-original-color="#1d719fff" stroke="none" stroke-opacity="1"/></g></g></svg>