<svg viewBox="0 0 511 511" xmlns="http://www.w3.org/2000/svg"><g id="Layer_2" data-name="Layer 2"><g id="Layer_3_copy" data-name="Layer 3 copy"><g id="_30" data-name="30"><rect fill="#fff" height="511" rx="6.25" width="511"/><rect fill="#ffe5e4" height="501" rx="1.25" width="501" x="5" y="5"/><rect fill="#fff" height="260.06" rx="6.25" width="260.5" y=".22"/><rect fill="#f1e9d4" height="250.07" rx="1.25" width="250.5" x="5" y="5.22"/><path d="m130.25 135.47a129.36 129.36 0 0 1 -91.67-37.78 129.78 129.78 0 0 1 -38.58-91.37 6.25 6.25 0 0 1 6.27-6.32h248a6.19 6.19 0 0 1 4.44 1.86 6.21 6.21 0 0 1 1.82 4.46 129.79 129.79 0 0 1 -38.58 91.37 129.36 129.36 0 0 1 -91.7 37.78z" fill="#fff"/><path d="m254.24 5a1.27 1.27 0 0 1 1.26 1.27c-.68 68.73-56.5 124.2-125.25 124.2s-124.56-55.47-125.25-124.2a1.26 1.26 0 0 1 1.27-1.27z" fill="#384466"/><path d="m6.27 260.07a6.25 6.25 0 0 1 -6.27-6.33 130.25 130.25 0 0 1 260.49 0 6.28 6.28 0 0 1 -6.26 6.32z" fill="#fff"/><path d="m254.24 255.07a1.28 1.28 0 0 0 1.26-1.27c-.68-68.71-56.5-124.21-125.25-124.21s-124.56 55.5-125.25 124.21a1.26 1.26 0 0 0 1.26 1.27z" fill="#384466"/><rect fill="#fff" height="260.07" rx="6.25" width="260.5" x="250.28"/><rect fill="#ffe59c" height="250.07" rx="1.25" width="250.5" x="255.28" y="5"/><path d="m504.69 260.06a130.23 130.23 0 0 1 -91.52-38.5 130 130 0 0 1 91.52-221.56 6.27 6.27 0 0 1 6.31 6.27v247.53a6.26 6.26 0 0 1 -6.25 6.26z" fill="#fff"/><path d="m506 253.8a1.25 1.25 0 0 1 -1.26 1.26c-68.84-.68-124.43-56.39-124.43-125s55.59-124.38 124.43-125.06a1.25 1.25 0 0 1 1.26 1.27z" fill="#e42a1b"/><path d="m256.76 260.06a6.27 6.27 0 0 1 -6.26-6.26v-247.53a6.26 6.26 0 0 1 6.26-6.27 130.22 130.22 0 0 1 91.58 38.5 129.58 129.58 0 0 1 0 183.05 130.23 130.23 0 0 1 -91.52 38.5z" fill="#fff"/><path d="m255.5 253.8a1.26 1.26 0 0 0 1.27 1.26c68.83-.68 124.42-56.39 124.42-125s-55.59-124.38-124.42-125.06a1.26 1.26 0 0 0 -1.27 1.26z" fill="#e42a1b"/><rect fill="#fff" height="260.07" rx="6.25" width="260.5" x="250.5" y="250.94"/><rect fill="#f0f0cc" height="250.07" rx="1.25" width="250.5" x="255.5" y="255.94"/><path d="m380.75 386.19a130.34 130.34 0 0 1 -130.24-129.19 6.27 6.27 0 0 1 6.26-6.32h248a6.27 6.27 0 0 1 6.23 6.32 130.36 130.36 0 0 1 -130.25 129.19z" fill="#fff"/><path d="m256.77 255.72a1.26 1.26 0 0 0 -1.26 1.27c.68 68.71 56.49 124.2 125.24 124.2s124.57-55.49 125.25-124.19a1.27 1.27 0 0 0 -1.26-1.27z" fill="#fdd82f"/><path d="m256.77 510.79a6.27 6.27 0 0 1 -6.26-6.32 130.25 130.25 0 0 1 260.49 0 6.27 6.27 0 0 1 -6.26 6.32z" fill="#fff"/><path d="m256.77 505.79a1.26 1.26 0 0 1 -1.26-1.27c.68-68.71 56.49-124.21 125.24-124.21s124.57 55.5 125.25 124.21a1.28 1.28 0 0 1 -1.26 1.27z" fill="#fdd82f"/><rect fill="#fff" height="260.06" rx="6.25" width="260.5" x=".22" y="250.72"/><rect fill="#f3f1da" height="250.07" rx="1.25" width="250.5" x="5.22" y="255.72"/><path d="m6.26 510.78a6.27 6.27 0 0 1 -6.26-6.26v-247.52a6.26 6.26 0 0 1 6.26-6.26 130.2 130.2 0 0 1 91.57 38.5 129.56 129.56 0 0 1 0 183 130.17 130.17 0 0 1 -91.51 38.5z" fill="#fff"/><path d="m5 504.52a1.26 1.26 0 0 0 1.27 1.26c68.83-.68 124.42-56.39 124.42-125s-55.59-124.38-124.42-125.05a1.26 1.26 0 0 0 -1.27 1.27z" fill="#872e26"/><path d="m254.18 510.78a130 130 0 0 1 0-260 6.27 6.27 0 0 1 6.32 6.22v247.52a6.26 6.26 0 0 1 -6.25 6.26z" fill="#fff"/><path d="m255.5 504.52a1.26 1.26 0 0 1 -1.27 1.26c-68.83-.68-124.42-56.39-124.42-125s55.59-124.35 124.42-125a1.26 1.26 0 0 1 1.27 1.22z" fill="#872e26"/></g></g></g></svg>